<?xml version="1.0" encoding="UTF-8"?>
<svg id="Layer_2" data-name="Layer 2" xmlns="http://www.w3.org/2000/svg" viewBox="0 0 132.41 70">
  <defs>
    <style>
      .cls-1, .cls-2 {
        fill: #32a849;
      }

      .cls-1, .cls-3 {
        fill-rule: evenodd;
      }
    </style>
  </defs>
  <g id="Layer_1-2" data-name="Layer 1">
    <g>
      <path class="cls-3" d="M.08,7.32c-1.13,28.81,8.99,50.36,33.38,62.68,11.77-5.94,20.21-14.03,25.67-24.05h-3.43c-.37,.63-.75,1.26-1.15,1.87-5.28,8.18-12.57,14.29-21.09,18.81-8.52-4.53-15.8-10.64-21.09-18.81C4.97,36.37,2.72,22.76,3.01,9.34,23.71,.87,43.22,.87,63.92,9.34c.11,4.97-.13,9.96-.85,14.86h3.02c.75-5.3,.99-10.93,.76-16.87C44.15-2.44,22.78-2.44,.08,7.32Z"/>
      <path class="cls-1" d="M5.98,11.38c-.02,12.13,2.24,24.51,8.91,34.82,4.7,7.28,11.1,12.82,18.58,17.03,7.48-4.21,13.88-9.76,18.58-17.03l.16-.25h-1.78c-4.36,6.54-10.19,11.63-16.96,15.56-6.96-4.04-12.93-9.31-17.33-16.12C9.82,35.61,7.58,23.9,7.47,12.4c17.64-6.57,34.34-6.57,51.98,0-.04,3.93-.32,7.89-.94,11.79h1.51c.65-4.24,.93-8.54,.92-12.82-18.67-7.19-36.3-7.19-54.98,0h0Z"/>
      <path class="cls-1" d="M33.36,22.29h0c-.27-.04-.54-.06-.82-.06s-.52,.02-.78,.06c-1.43-3.61-3.61-4.46-6.09-4.24,1.98,.77,3.73,2.28,4.39,4.82-1.6,.88-2.68,2.58-2.68,4.53,0,.79,.18,1.54,.5,2.21-.72,.76-1.36,1.69-1.88,2.75h-2.62c-1.1,0-.73-.51-.93-1.37-.4-1.73-1.43-2.51-2.9-2.63,.62,.71,1.05,1.86,1.29,3.53,.22,1.59,.85,2.43,2.57,2.43h1.8c-.24,.73-.43,1.51-.57,2.32h-2.84c-2.19,0-2.32,1.21-2.65,2.94-.25,1.28-.65,1.78-1.2,2.41,1.36-.11,2.34-.27,2.8-1.66,.3-.92-.15-1.73,1.03-1.73h2.65c-.02,.37-.03,.73-.03,1.11,0,.73,.04,1.44,.12,2.13-1.02,.53-2.54,1.28-3.25,1.86-.91,.75-1.02,1.54-1.01,2.54,0,1.14,.23,1.81-1.05,2.71,1.51,.17,2.47-.67,2.73-1.88,.17-.79-.18-1.5,.32-2.07,.26-.3,1.69-1.04,2.53-1.48,1.06,4.93,4.13,8.49,7.75,8.49V24.19h4.05c-.42-.53-.94-.97-1.53-1.31v-.02c.67-2.54,2.41-4.05,4.39-4.82-2.48-.22-4.66,.64-6.09,4.24h0Z"/>
      <path d="M38.35,24.97l-4.62,12.76h3.25l.76-2.25h4.76l.76,2.25h3.29l-4.62-12.76h-3.6Zm.22,8.11l1.56-4.67,1.58,4.67h-3.14Z"/>
      <path d="M53.82,27.66c.59,0,1.12,.14,1.59,.42s.83,.68,1.08,1.22h3.42c-.36-1.38-1.09-2.47-2.16-3.27-1.08-.8-2.38-1.2-3.89-1.2-1.24,0-2.34,.28-3.32,.83-.98,.55-1.74,1.32-2.28,2.31-.55,.99-.82,2.11-.82,3.37s.27,2.38,.82,3.36c.55,.98,1.31,1.75,2.28,2.3,.98,.55,2.08,.83,3.32,.83,1.52,0,2.81-.4,3.89-1.19,1.08-.79,1.8-1.88,2.16-3.26h-3.42c-.26,.53-.62,.94-1.08,1.22-.47,.28-1,.42-1.59,.42-.96,0-1.73-.33-2.33-1s-.89-1.56-.89-2.67,.3-2.01,.89-2.67c.59-.67,1.37-1,2.33-1h0Z"/>
      <path d="M67.68,27.66c.59,0,1.12,.14,1.59,.42,.47,.28,.83,.68,1.08,1.22h3.42c-.36-1.38-1.09-2.47-2.16-3.27-1.08-.8-2.38-1.2-3.89-1.2-1.24,0-2.34,.28-3.32,.83-.98,.55-1.74,1.32-2.28,2.31-.55,.99-.82,2.11-.82,3.37s.27,2.38,.82,3.36c.55,.98,1.31,1.75,2.28,2.3s2.08,.83,3.32,.83c1.52,0,2.81-.4,3.89-1.19,1.08-.79,1.8-1.88,2.16-3.26h-3.42c-.25,.53-.62,.94-1.08,1.22-.47,.28-1,.42-1.59,.42-.96,0-1.73-.33-2.33-1s-.89-1.56-.89-2.67,.3-2.01,.89-2.67c.59-.67,1.37-1,2.33-1h0Z"/>
      <path d="M83.2,32.6c0,.76-.19,1.35-.58,1.76-.39,.41-.94,.62-1.67,.62s-1.28-.21-1.65-.62c-.38-.41-.56-1-.56-1.76v-7.64h-3.11v7.62c0,1.14,.23,2.11,.69,2.9,.46,.79,1.09,1.39,1.88,1.78,.79,.39,1.69,.59,2.7,.59s1.92-.2,2.74-.6c.82-.4,1.47-.99,1.95-1.78,.48-.79,.73-1.75,.73-2.89v-7.62h-3.11v7.64h0Z"/>
      <path d="M97.68,31.26c.48-.67,.72-1.42,.72-2.27,0-.75-.18-1.43-.53-2.04-.35-.61-.88-1.09-1.59-1.44s-1.57-.53-2.57-.53h-5.22v12.76h3.11v-4.82h.75l2.65,4.82h3.51l-2.95-5.05c.93-.28,1.64-.75,2.12-1.42Zm-2.87-.96c-.29,.28-.71,.42-1.28,.42h-1.93v-3.16h1.93c.57,0,1,.14,1.28,.42,.29,.28,.43,.66,.43,1.15,0,.51-.14,.9-.43,1.18Z"/>
      <path d="M104.13,24.97l-4.62,12.76h3.25l.76-2.25h4.76l.76,2.25h3.29l-4.62-12.76h-3.6Zm.22,8.11l1.56-4.67,1.58,4.67h-3.14Z"/>
      <path d="M113.05,27.46h3.38v10.27h3.11v-10.27h3.38v-2.49h-9.87v2.49Z"/>
      <path d="M124.49,37.73h7.82v-2.49h-4.71v-2.8h4.16v-2.4h-4.16v-2.58h4.71v-2.49h-7.82v12.76Z"/>
      <path class="cls-2" d="M36.42,40.03c-.25-.12-.55-.19-.91-.19h-1.78v4.5h1.1v-1.62h.68c.37,0,.68-.07,.92-.2,.25-.13,.43-.31,.55-.52,.12-.22,.18-.45,.18-.72,0-.28-.06-.53-.19-.75-.12-.22-.31-.39-.56-.51h0Zm-.53,1.68c-.1,.1-.26,.15-.47,.15h-.6v-1.13h.6c.21,0,.37,.05,.47,.15,.1,.1,.15,.24,.15,.42s-.05,.32-.15,.42h0Z"/>
      <path class="cls-2" d="M38.06,44.35h2.76v-.88h-1.66v-.99h1.47v-.85h-1.47v-.91h1.66v-.88h-2.76v4.51Z"/>
      <path class="cls-2" d="M44.45,41.96c-.18-.09-.42-.18-.71-.28-.29-.09-.5-.18-.64-.26-.14-.08-.21-.19-.21-.34,0-.13,.04-.24,.12-.31,.08-.07,.19-.1,.32-.1,.15,0,.28,.04,.38,.13,.1,.08,.15,.2,.16,.34h1.19c-.02-.42-.18-.75-.49-.99-.3-.24-.7-.36-1.2-.36s-.88,.12-1.19,.36c-.3,.24-.46,.57-.46,.99,0,.28,.07,.51,.2,.69,.13,.18,.29,.31,.47,.4,.18,.09,.42,.18,.71,.27,.2,.06,.36,.11,.47,.16,.11,.05,.2,.11,.28,.18,.08,.07,.11,.16,.11,.28,0,.13-.05,.24-.14,.31-.09,.08-.22,.11-.39,.11s-.29-.04-.39-.13c-.1-.09-.16-.21-.17-.38h-1.17c0,.29,.09,.55,.25,.76,.16,.21,.37,.37,.63,.47,.26,.11,.56,.16,.89,.16s.63-.06,.88-.19c.25-.13,.44-.29,.57-.5,.13-.21,.2-.44,.2-.7s-.07-.49-.2-.66c-.13-.17-.29-.3-.47-.39h0Z"/>
      <path class="cls-2" d="M45.88,40.73h1.19v3.63h1.1v-3.63h1.19v-.88h-3.48v.88Z"/>
      <path class="cls-2" d="M53.98,40.8c.21,0,.4,.05,.56,.15,.16,.1,.29,.24,.38,.43h1.2c-.13-.49-.38-.87-.76-1.15-.38-.28-.84-.42-1.37-.42-.44,0-.83,.1-1.17,.29-.34,.19-.61,.47-.81,.81-.19,.35-.29,.75-.29,1.19s.1,.84,.29,1.19c.19,.35,.46,.62,.81,.81,.34,.19,.73,.29,1.17,.29,.53,0,.99-.14,1.37-.42,.38-.28,.63-.66,.76-1.15h-1.2c-.09,.19-.22,.33-.38,.43-.16,.1-.35,.15-.56,.15-.34,0-.61-.12-.82-.35-.21-.24-.31-.55-.31-.94s.1-.71,.31-.94c.21-.24,.48-.35,.82-.35h0Z"/>
      <path class="cls-2" d="M60.42,40.08c-.35-.2-.74-.29-1.17-.29s-.81,.1-1.16,.29c-.35,.2-.63,.47-.84,.82-.21,.35-.31,.75-.31,1.19s.1,.84,.31,1.19c.21,.35,.49,.63,.84,.83,.35,.2,.74,.29,1.16,.29s.81-.1,1.16-.29c.35-.2,.63-.47,.83-.83,.21-.35,.31-.75,.31-1.19s-.1-.84-.31-1.19c-.2-.35-.48-.63-.84-.82h0Zm-.3,2.96c-.22,.24-.5,.36-.86,.36s-.65-.12-.87-.36-.32-.56-.32-.95,.11-.72,.32-.96c.22-.24,.51-.35,.87-.35s.65,.12,.86,.36c.22,.24,.32,.55,.32,.95s-.11,.71-.32,.95h0Z"/>
      <path class="cls-2" d="M65.42,42.64l-1.84-2.79h-1.1v4.51h1.1v-2.78l1.84,2.78h1.1v-4.51h-1.1v2.79Z"/>
      <path class="cls-2" d="M67.39,40.73h1.2v3.63h1.1v-3.63h1.19v-.88h-3.49v.88Z"/>
      <path class="cls-2" d="M75,42.07c.17-.24,.25-.5,.25-.8,0-.26-.06-.51-.19-.72-.12-.22-.31-.39-.56-.51-.25-.13-.55-.19-.91-.19h-1.84v4.5h1.1v-1.7h.26l.94,1.7h1.24l-1.04-1.78c.33-.1,.58-.26,.75-.5h0Zm-1.01-.34c-.1,.1-.25,.15-.45,.15h-.68v-1.12h.68c.2,0,.35,.05,.45,.15,.1,.1,.15,.23,.15,.4s-.05,.32-.15,.42h0Z"/>
      <path class="cls-2" d="M79.55,40.08c-.35-.2-.74-.29-1.16-.29s-.81,.1-1.17,.29c-.35,.2-.63,.47-.84,.82-.21,.35-.31,.75-.31,1.19s.1,.84,.31,1.19c.21,.35,.49,.63,.84,.83,.35,.2,.74,.29,1.17,.29s.81-.1,1.16-.29c.35-.2,.63-.47,.84-.83,.21-.35,.31-.75,.31-1.19s-.1-.84-.3-1.19c-.2-.35-.48-.63-.84-.82h0Zm-.3,2.96c-.22,.24-.5,.36-.86,.36s-.65-.12-.87-.36c-.22-.24-.32-.56-.32-.95s.11-.72,.32-.96c.22-.24,.51-.35,.87-.35s.65,.12,.86,.36c.22,.24,.32,.55,.32,.95s-.11,.71-.32,.95h0Z"/>
      <path class="cls-2" d="M82.72,39.84h-1.1v4.51h2.54v-.85h-1.44v-3.66Z"/>
      <path class="cls-2" d="M89.29,41.96c-.18-.09-.42-.18-.71-.28-.29-.09-.5-.18-.64-.26-.14-.08-.21-.19-.21-.34,0-.13,.04-.24,.12-.31,.08-.07,.19-.1,.32-.1,.15,0,.28,.04,.38,.13,.1,.08,.15,.2,.16,.34h1.19c-.02-.42-.18-.75-.49-.99-.3-.24-.7-.36-1.2-.36s-.88,.12-1.19,.36c-.3,.24-.46,.57-.46,.99,0,.28,.07,.51,.2,.69,.13,.18,.29,.31,.47,.4,.18,.09,.42,.18,.71,.27,.2,.06,.36,.11,.47,.16,.11,.05,.2,.11,.28,.18,.08,.07,.11,.16,.11,.28,0,.13-.05,.24-.14,.31-.09,.08-.22,.11-.39,.11s-.29-.04-.39-.13c-.1-.09-.16-.21-.17-.38h-1.17c0,.29,.09,.55,.25,.76,.16,.21,.37,.37,.63,.47,.26,.11,.55,.16,.89,.16s.63-.06,.88-.19c.25-.13,.44-.29,.57-.5,.13-.21,.2-.44,.2-.7s-.07-.49-.2-.66c-.13-.17-.29-.3-.47-.39h0Z"/>
      <path class="cls-2" d="M90.96,44.35h2.76v-.88h-1.66v-.99h1.47v-.85h-1.47v-.91h1.66v-.88h-2.76v4.51Z"/>
      <path class="cls-2" d="M97.99,42.07c.17-.24,.25-.5,.25-.8,0-.26-.06-.51-.19-.72-.12-.22-.31-.39-.56-.51-.25-.13-.55-.19-.91-.19h-1.84v4.5h1.1v-1.7h.26l.94,1.7h1.24l-1.04-1.78c.33-.1,.58-.26,.75-.5h0Zm-1.01-.34c-.1,.1-.25,.15-.45,.15h-.68v-1.12h.68c.2,0,.35,.05,.45,.15,.1,.1,.15,.23,.15,.4s-.05,.32-.15,.42h0Z"/>
      <path class="cls-2" d="M101.2,43.25l-1.12-3.4h-1.17l1.6,4.51h1.37l1.6-4.51h-1.16l-1.12,3.4Z"/>
      <path class="cls-2" d="M105.36,39.84h-1.1v4.5h1.1v-4.5Z"/>
      <path class="cls-2" d="M108.54,40.8c.21,0,.4,.05,.56,.15,.16,.1,.29,.24,.38,.43h1.21c-.13-.49-.38-.87-.76-1.15-.38-.28-.84-.42-1.37-.42-.44,0-.83,.1-1.17,.29-.35,.19-.61,.47-.81,.81-.19,.35-.29,.75-.29,1.19s.1,.84,.29,1.19c.19,.35,.46,.62,.81,.81,.34,.19,.73,.29,1.17,.29,.53,0,.99-.14,1.37-.42,.38-.28,.63-.66,.76-1.15h-1.21c-.09,.19-.22,.33-.38,.43-.16,.1-.35,.15-.56,.15-.34,0-.61-.12-.82-.35s-.32-.55-.32-.94,.11-.71,.32-.94c.21-.24,.48-.35,.82-.35h0Z"/>
      <path class="cls-2" d="M111.69,44.35h2.76v-.88h-1.66v-.99h1.47v-.85h-1.47v-.91h1.66v-.88h-2.76v4.51Z"/>
      <path class="cls-2" d="M118.08,41.96c-.18-.09-.42-.18-.71-.28-.29-.09-.51-.18-.64-.26-.14-.08-.21-.19-.21-.34,0-.13,.04-.24,.12-.31,.08-.07,.19-.1,.32-.1,.15,0,.28,.04,.38,.13,.1,.08,.15,.2,.16,.34h1.19c-.02-.42-.18-.75-.49-.99-.3-.24-.7-.36-1.2-.36s-.88,.12-1.19,.36c-.3,.24-.46,.57-.46,.99,0,.28,.07,.51,.2,.69,.13,.18,.29,.31,.47,.4s.42,.18,.71,.27c.2,.06,.36,.11,.47,.16,.11,.05,.2,.11,.28,.18,.08,.07,.11,.16,.11,.28,0,.13-.05,.24-.14,.31-.09,.08-.22,.11-.39,.11s-.29-.04-.39-.13c-.1-.09-.16-.21-.17-.38h-1.17c0,.29,.09,.55,.25,.76,.15,.21,.36,.37,.62,.47,.26,.11,.56,.16,.89,.16s.63-.06,.88-.19,.44-.29,.57-.5c.13-.21,.2-.44,.2-.7s-.07-.49-.2-.66c-.13-.17-.29-.3-.47-.39h0Z"/>
      <path class="cls-2" d="M122.53,39.84h-1.1v4.51h2.53v-.85h-1.44v-3.66Z"/>
      <path class="cls-2" d="M125.91,39.84h-1.1v4.51h2.54v-.85h-1.44v-3.66Z"/>
      <path class="cls-2" d="M130.26,40.8c.21,0,.4,.05,.56,.15,.16,.1,.29,.24,.38,.43h1.21c-.13-.49-.38-.87-.76-1.15-.38-.28-.84-.42-1.37-.42-.43,0-.83,.1-1.17,.29-.35,.19-.61,.47-.81,.81-.19,.35-.29,.75-.29,1.19s.1,.84,.29,1.19c.19,.35,.46,.62,.81,.81,.34,.19,.74,.29,1.17,.29,.53,0,.99-.14,1.37-.42,.38-.28,.63-.66,.76-1.15h-1.21c-.09,.19-.22,.33-.38,.43-.16,.1-.35,.15-.56,.15-.34,0-.61-.12-.82-.35-.21-.24-.32-.55-.32-.94s.11-.71,.32-.94c.21-.24,.48-.35,.82-.35h0Z"/>
      <path d="M63.13,46.91c.29,.15,.52,.37,.68,.65,.16,.28,.24,.6,.24,.96s-.08,.68-.24,.96c-.16,.28-.39,.5-.68,.65-.29,.15-.63,.23-1.02,.23h-1.38v-3.69h1.38c.39,0,.73,.08,1.02,.23h0Zm-.28,2.4c.19-.18,.28-.45,.28-.79s-.09-.6-.28-.79c-.19-.19-.45-.28-.79-.28h-.42v2.14h.42c.34,0,.6-.09,.79-.28h0Z"/>
      <path d="M65.43,46.68v2.2c0,.22,.05,.39,.16,.51,.11,.12,.27,.18,.48,.18s.37-.06,.48-.18c.11-.12,.17-.29,.17-.51v-2.2h.9v2.2c0,.33-.07,.61-.21,.84s-.33,.4-.56,.52c-.24,.12-.5,.17-.79,.17s-.55-.06-.78-.17c-.23-.11-.41-.29-.54-.51-.13-.23-.2-.51-.2-.84v-2.2h.9Z"/>
      <path d="M70.99,48.8c.13,.17,.19,.36,.19,.57,0,.31-.11,.55-.32,.73-.21,.18-.52,.27-.9,.27h-1.72v-3.69h1.66c.37,0,.67,.09,.88,.26,.21,.17,.32,.4,.32,.7,0,.22-.06,.4-.17,.54-.11,.14-.26,.24-.45,.3,.21,.05,.39,.15,.51,.32h0Zm-1.85-.62h.59c.15,0,.26-.03,.34-.1,.08-.06,.12-.16,.12-.29s-.04-.22-.12-.29c-.08-.07-.19-.1-.34-.1h-.59v.77Zm1.01,1.37c.08-.07,.12-.17,.12-.3s-.04-.23-.13-.3c-.09-.07-.2-.11-.35-.11h-.65v.81h.66c.15,0,.27-.03,.35-.1h0Z"/>
      <path d="M74,49.72h-1.38l-.22,.65h-.94l1.33-3.69h1.04l1.33,3.69h-.95l-.22-.65h0Zm-.23-.69l-.46-1.35-.45,1.35h.91Z"/>
      <path d="M76.47,46.68v3.69h-.9v-3.69h.9Z"/>
      <path d="M80.5,48.15v.75h-2.31v-.75h2.31Z"/>
      <path d="M83,50.27c-.21-.09-.38-.22-.51-.39s-.2-.38-.2-.62h.96c.01,.14,.06,.24,.14,.31,.08,.07,.18,.11,.31,.11s.24-.03,.31-.09c.08-.06,.12-.15,.12-.26,0-.09-.03-.17-.09-.23-.06-.06-.14-.11-.23-.15-.09-.04-.22-.08-.38-.13-.24-.07-.43-.15-.58-.22-.15-.07-.28-.18-.39-.33-.11-.14-.16-.33-.16-.56,0-.34,.12-.61,.37-.81,.25-.19,.57-.29,.97-.29s.73,.1,.98,.29c.25,.19,.38,.47,.4,.81h-.97c0-.12-.05-.21-.13-.28-.08-.07-.18-.1-.31-.1-.11,0-.2,.03-.26,.09-.07,.06-.1,.14-.1,.25,0,.12,.05,.21,.17,.28,.11,.07,.29,.14,.52,.21,.24,.08,.43,.16,.58,.23,.15,.07,.28,.18,.39,.32,.11,.14,.16,.32,.16,.54s-.05,.4-.16,.57c-.11,.17-.26,.31-.47,.41-.2,.1-.44,.15-.72,.15s-.51-.04-.72-.13h0Z"/>
      <path d="M88.82,46.68v3.69h-.9v-1.52h-1.4v1.52h-.9v-3.69h.9v1.44h1.4v-1.44h.9Z"/>
      <path d="M91.76,49.72h-1.38l-.22,.65h-.94l1.33-3.69h1.04l1.33,3.69h-.95l-.22-.65h0Zm-.23-.69l-.46-1.35-.45,1.35h.91Z"/>
      <path d="M95.21,50.37l-.77-1.39h-.21v1.39h-.9v-3.69h1.51c.29,0,.54,.05,.74,.15,.21,.1,.36,.24,.46,.42,.1,.18,.15,.37,.15,.59,0,.25-.07,.46-.21,.66-.14,.19-.34,.33-.61,.41l.85,1.46h-1.02Zm-.98-2.03h.56c.16,0,.29-.04,.37-.12,.08-.08,.12-.19,.12-.34s-.04-.25-.12-.33c-.08-.08-.21-.12-.37-.12h-.56v.91h0Z"/>
      <path d="M99.06,46.68v2.51c0,.39-.11,.69-.33,.9-.22,.21-.51,.31-.89,.31s-.7-.11-.94-.33c-.24-.22-.35-.53-.35-.94h.89c0,.15,.03,.27,.09,.35,.06,.08,.15,.12,.27,.12,.11,0,.19-.03,.25-.1,.06-.07,.09-.17,.09-.3v-2.51h.9Z"/>
      <path d="M102.08,49.72h-1.38l-.22,.65h-.94l1.33-3.69h1.04l1.33,3.69h-.95l-.22-.65h0Zm-.23-.69l-.46-1.35-.45,1.35h.91Z"/>
      <path d="M106.85,46.68v3.69h-.9v-1.52h-1.4v1.52h-.9v-3.69h.9v1.44h1.4v-1.44h.9Z"/>
      <path d="M110.87,48.15v.75h-2.31v-.75h2.31Z"/>
      <path d="M115.06,49.72h-1.38l-.22,.65h-.94l1.33-3.69h1.04l1.33,3.69h-.95l-.22-.65h0Zm-.23-.69l-.46-1.35-.45,1.35h.91Z"/>
      <path d="M118.95,46.68v2.51c0,.39-.11,.69-.33,.9-.22,.21-.51,.31-.89,.31s-.7-.11-.94-.33c-.24-.22-.35-.53-.35-.94h.89c0,.15,.03,.27,.09,.35,.06,.08,.15,.12,.27,.12,.11,0,.19-.03,.25-.1,.06-.07,.09-.17,.09-.3v-2.51h.9Z"/>
      <path d="M123.85,46.68v3.69h-.9v-2.21l-.82,2.21h-.72l-.83-2.22v2.22h-.9v-3.69h1.06l1.03,2.55,1.03-2.55h1.06Z"/>
      <path d="M126.79,49.72h-1.38l-.22,.65h-.94l1.33-3.69h1.04l1.33,3.69h-.95l-.22-.65h0Zm-.23-.69l-.46-1.35-.45,1.35h.91Z"/>
      <path d="M131.66,50.37h-.9l-1.5-2.27v2.27h-.9v-3.69h.9l1.5,2.28v-2.28h.9v3.69Z"/>
    </g>
  </g>
</svg>