<svg width="133" height="70" viewBox="0 0 133 70" fill="none" xmlns="http://www.w3.org/2000/svg">
<path fill-rule="evenodd" clip-rule="evenodd" d="M0.0844059 7.32494C-1.04286 36.1364 9.07058 57.6845 33.4642 70C45.2321 64.0579 53.6774 55.9662 59.1381 45.9486H55.7084C55.3387 46.5784 54.9553 47.2037 54.5537 47.8221C49.2688 56.0005 41.9826 62.1091 33.4642 66.6365C24.9459 62.1069 17.6597 56.0005 12.3748 47.8221C4.97227 36.3691 2.7223 22.7621 3.0121 9.33759C23.7113 0.873973 43.2171 0.873973 63.9164 9.33759C64.0236 14.303 63.784 19.2959 63.063 24.1929H66.0819C66.8304 18.8897 67.0768 13.2625 66.8441 7.32494C44.1482 -2.44165 22.7803 -2.44165 0.0844059 7.32494Z" fill="black"/>
<path fill-rule="evenodd" clip-rule="evenodd" d="M5.9764 11.3753C5.95587 23.5014 8.21496 35.8831 14.8827 46.1996C19.5857 53.4767 25.9865 59.0217 33.4643 63.2318C40.9422 59.0217 47.3429 53.4767 52.046 46.1996L52.2057 45.9486H50.4212C46.0582 52.4863 40.2348 57.5773 33.4621 61.509C26.4999 57.4655 20.535 52.1965 16.1355 45.3873C9.81686 35.6116 7.57831 23.8985 7.47106 12.4022C25.1125 5.8303 41.8116 5.8303 59.4531 12.4022C59.4166 16.3339 59.1313 20.2931 58.5175 24.1883H60.0304C60.683 19.9531 60.9591 15.6471 60.9523 11.3708C42.2794 4.17819 24.6493 4.17819 5.97412 11.3708L5.9764 11.3753Z" fill="#32A849"/>
<path fill-rule="evenodd" clip-rule="evenodd" d="M33.3588 22.292L33.3543 22.2989C33.0873 22.2555 32.8134 22.2327 32.5351 22.2327C32.2567 22.2327 32.0102 22.2532 31.7569 22.292C30.3307 18.6866 28.1469 17.8286 25.6688 18.0477C27.6495 18.8212 29.3951 20.3296 30.0546 22.8671C28.4573 23.7456 27.3734 25.4433 27.3734 27.3967C27.3734 28.1885 27.5514 28.937 27.8708 29.6101C27.152 30.37 26.5154 31.2987 25.9928 32.3621H23.3755C22.2801 32.3621 22.6475 31.851 22.4467 30.9884C22.0451 29.261 21.0205 28.4783 19.551 28.3619C20.1671 29.0693 20.6052 30.2217 20.838 31.8875C21.0593 33.478 21.6891 34.3154 23.4074 34.3154H25.2078C24.9705 35.0502 24.7788 35.8283 24.6419 36.6361H21.8032C19.6171 36.6361 19.4802 37.8501 19.1493 39.573C18.9029 40.8508 18.4944 41.3551 17.9468 41.9827C19.3045 41.8754 20.2835 41.7134 20.7421 40.3214C21.0433 39.4064 20.5938 38.5872 21.7735 38.5872H24.4206C24.4 38.9523 24.3863 39.322 24.3863 39.6939C24.3863 40.4196 24.4274 41.1292 24.5096 41.8207C23.4941 42.3478 21.9698 43.1008 21.2578 43.6827C20.3451 44.4289 20.2424 45.223 20.2469 46.2247C20.2538 47.3657 20.4751 48.032 19.1927 48.9379C20.7033 49.1045 21.664 48.2671 21.9264 47.0576C22.0976 46.2658 21.7462 45.5561 22.2505 44.9834C22.5106 44.6867 23.9368 43.9405 24.7834 43.5001C25.8445 48.4268 28.9137 51.9911 32.5351 51.9911V24.1929H36.5832C36.1633 23.6635 35.643 23.2185 35.0497 22.8853L35.0589 22.8648C35.7183 20.325 37.464 18.8167 39.4447 18.0454C36.9643 17.8286 34.7827 18.6866 33.3565 22.2897L33.3588 22.292Z" fill="#32A849"/>
<path d="M38.3505 24.9664L33.7319 37.7292H36.9859L37.7504 35.4746H42.5127L43.2772 37.7292H46.5677L41.9491 24.9664H38.3505ZM38.5673 33.0741L40.1304 28.4007L41.7118 33.0741H38.5673Z" fill="black"/>
<path d="M53.8215 27.6568C54.4148 27.6568 54.9465 27.796 55.412 28.0744C55.8775 28.3528 56.2403 28.759 56.4936 29.2929H59.9119C59.5491 27.9101 58.8257 26.8193 57.7487 26.0207C56.6693 25.222 55.3732 24.8204 53.858 24.8204C52.6212 24.8204 51.5167 25.0965 50.5401 25.6464C49.5634 26.1987 48.8035 26.9677 48.2582 27.9557C47.7128 28.9438 47.439 30.0688 47.439 31.3284C47.439 32.588 47.7128 33.7107 48.2582 34.6919C48.8035 35.6732 49.5634 36.4399 50.5401 36.9921C51.5167 37.5443 52.6212 37.8205 53.858 37.8205C55.3732 37.8205 56.6693 37.4234 57.7487 36.6293C58.828 35.8352 59.5491 34.749 59.9119 33.3662H56.4936C56.238 33.9001 55.8775 34.3063 55.412 34.5847C54.9465 34.8631 54.4148 35.0023 53.8215 35.0023C52.8631 35.0023 52.0872 34.6691 51.4939 34.0028C50.9006 33.3365 50.604 32.4443 50.604 31.3307C50.604 30.2171 50.9006 29.3249 51.4939 28.6586C52.0872 27.9922 52.8631 27.6591 53.8215 27.6591V27.6568Z" fill="black"/>
<path d="M67.675 27.6568C68.2683 27.6568 68.7977 27.796 69.2655 28.0744C69.731 28.3528 70.0938 28.759 70.3471 29.2929H73.7654C73.4026 27.9101 72.6792 26.8193 71.6022 26.0207C70.5228 25.222 69.2267 24.8204 67.7115 24.8204C66.4747 24.8204 65.3703 25.0965 64.3936 25.6464C63.4169 26.1987 62.6571 26.9677 62.1117 27.9557C61.5663 28.9438 61.2925 30.0688 61.2925 31.3284C61.2925 32.588 61.5663 33.7107 62.1117 34.6919C62.6571 35.6732 63.4169 36.4399 64.3936 36.9921C65.3703 37.5443 66.4747 37.8205 67.7115 37.8205C69.2267 37.8205 70.5228 37.4234 71.6022 36.6293C72.6815 35.8352 73.4026 34.749 73.7654 33.3662H70.3471C70.0938 33.9001 69.731 34.3063 69.2655 34.5847C68.8 34.8631 68.2683 35.0023 67.675 35.0023C66.7166 35.0023 65.9407 34.6691 65.3474 34.0028C64.7541 33.3365 64.4575 32.4443 64.4575 31.3307C64.4575 30.2171 64.7541 29.3249 65.3474 28.6586C65.9407 27.9922 66.7166 27.6591 67.675 27.6591V27.6568Z" fill="black"/>
<path d="M83.2011 32.604C83.2011 33.3684 83.0072 33.9549 82.6192 34.3679C82.2313 34.7809 81.6745 34.9863 80.9466 34.9863C80.2187 34.9863 79.6687 34.7809 79.2922 34.3679C78.9157 33.9572 78.7286 33.3684 78.7286 32.604V24.9687H75.6206V32.5857C75.6206 33.7267 75.8511 34.6919 76.312 35.486C76.773 36.2802 77.4005 36.8735 78.1946 37.2682C78.9887 37.663 79.8878 37.8592 80.8941 37.8592C81.9004 37.8592 82.8132 37.6607 83.6301 37.2591C84.447 36.8598 85.0997 36.2665 85.5834 35.4769C86.0672 34.6897 86.3114 33.7267 86.3114 32.5857V24.9687H83.2034V32.604H83.2011Z" fill="black"/>
<path d="M97.6795 31.2577C98.1587 30.5913 98.3983 29.8337 98.3983 28.9849C98.3983 28.2341 98.2226 27.5518 97.8712 26.9403C97.5198 26.3287 96.9904 25.8472 96.2807 25.4958C95.571 25.1444 94.713 24.9687 93.709 24.9687H88.4902V37.7315H91.5982V32.9143H92.3444L94.9983 37.7315H98.5078L95.5619 32.677C96.4952 32.3986 97.2003 31.9263 97.6795 31.2577ZM94.8066 30.2947C94.5213 30.5731 94.0946 30.7123 93.5241 30.7123H91.5982V27.5496H93.5241C94.0946 27.5496 94.5213 27.6887 94.8066 27.9671C95.0918 28.2455 95.2333 28.6289 95.2333 29.1127C95.2333 29.6215 95.0918 30.0163 94.8066 30.2947Z" fill="black"/>
<path d="M104.126 24.9664L99.5073 37.7292H102.761L103.526 35.4746H108.288L109.053 37.7292H112.343L107.724 24.9664H104.126ZM104.345 33.0741L105.908 28.4007L107.489 33.0741H104.345Z" fill="black"/>
<path d="M113.052 27.4583H116.434V37.7292H119.542V27.4583H122.924V24.9664H113.052V27.4583Z" fill="black"/>
<path d="M124.488 37.7292H132.306V35.2396H127.598V32.4397H131.76V30.0391H127.598V27.4583H132.306V24.9664H124.488V37.7292Z" fill="black"/>
<path d="M36.422 40.0316C36.1733 39.9084 35.8698 39.8445 35.5115 39.8445H33.7339V44.349H34.8315V42.7311H35.5138C35.8812 42.7311 36.1892 42.665 36.438 42.5326C36.6867 42.4003 36.8692 42.2246 36.9902 42.0101C37.1088 41.7933 37.1704 41.5559 37.1704 41.2935C37.1704 41.0106 37.1088 40.7618 36.9833 40.5428C36.8601 40.3237 36.673 40.1526 36.4243 40.0293L36.422 40.0316ZM35.8949 41.7134C35.7922 41.8115 35.637 41.8617 35.4271 41.8617H34.8292V40.7322H35.4271C35.637 40.7322 35.7922 40.7824 35.8949 40.8805C35.9975 40.9786 36.0477 41.1178 36.0477 41.2981C36.0477 41.4784 35.9975 41.6176 35.8949 41.7157V41.7134Z" fill="#32A849"/>
<path d="M38.0581 44.3513H40.8169V43.4705H39.1557V42.4824H40.6253V41.6358H39.1557V40.7253H40.8169V39.8445H38.0581V44.3513Z" fill="#32A849"/>
<path d="M44.4538 41.9576C44.2735 41.8686 44.0362 41.7727 43.7441 41.6746C43.452 41.581 43.2398 41.492 43.1029 41.4122C42.966 41.33 42.8975 41.2182 42.8975 41.0722C42.8975 40.9398 42.9386 40.8371 43.0185 40.7664C43.1006 40.6957 43.2056 40.6614 43.3402 40.6614C43.4931 40.6614 43.6209 40.7025 43.719 40.7869C43.8171 40.8714 43.8696 40.9855 43.8787 41.1315H45.0653C45.0448 40.7071 44.8805 40.3785 44.577 40.1411C44.2735 39.9038 43.8742 39.7852 43.3767 39.7852C42.8793 39.7852 42.4936 39.9038 42.1901 40.1411C41.8866 40.3785 41.7337 40.7071 41.7337 41.1269C41.7337 41.4099 41.7999 41.6381 41.9323 41.8138C42.0646 41.9895 42.2221 42.1218 42.4069 42.2108C42.5917 42.2998 42.8291 42.3911 43.1189 42.4801C43.3197 42.5394 43.4748 42.5942 43.5844 42.6398C43.6939 42.6878 43.7852 42.7471 43.8605 42.8201C43.9358 42.8931 43.9723 42.9844 43.9723 43.0962C43.9723 43.2286 43.9244 43.3335 43.8308 43.4066C43.7373 43.4819 43.6072 43.5184 43.4452 43.5184C43.2832 43.5184 43.1577 43.475 43.0595 43.386C42.9614 43.2993 42.9021 43.1715 42.8861 43.005H41.7178C41.7269 43.2993 41.809 43.5526 41.9642 43.7625C42.1194 43.9725 42.3293 44.1299 42.5895 44.2372C42.8496 44.3444 43.1463 44.3969 43.4748 44.3969C43.8034 44.3969 44.1047 44.3353 44.3534 44.2098C44.6021 44.0843 44.7915 43.9177 44.9216 43.7078C45.0516 43.4978 45.1178 43.2651 45.1178 43.0072C45.1178 42.738 45.0516 42.5166 44.9193 42.3455C44.7869 42.1743 44.6295 42.0443 44.4469 41.953L44.4538 41.9576Z" fill="#32A849"/>
<path d="M45.876 40.7253H47.0694V44.3513H48.167V40.7253H49.3605V39.8445H45.876V40.7253Z" fill="#32A849"/>
<path d="M53.9813 40.7961C54.1912 40.7961 54.3783 40.8463 54.5426 40.9444C54.7069 41.0425 54.8347 41.1863 54.926 41.3734H56.1308C56.003 40.8851 55.7475 40.4994 55.3664 40.2187C54.9853 39.9358 54.5289 39.7943 53.9927 39.7943C53.5568 39.7943 53.1643 39.8924 52.822 40.0864C52.4775 40.2803 52.2082 40.5519 52.0165 40.901C51.8248 41.2502 51.729 41.6472 51.729 42.0922C51.729 42.5372 51.8248 42.9342 52.0165 43.2811C52.2082 43.6279 52.4775 43.8972 52.822 44.0934C53.1666 44.2874 53.5568 44.3855 53.9927 44.3855C54.5266 44.3855 54.9853 44.2463 55.3664 43.9656C55.7475 43.685 56.0007 43.3016 56.1308 42.8133H54.926C54.837 43.0004 54.7092 43.1441 54.5426 43.2423C54.3783 43.3404 54.1912 43.3906 53.9813 43.3906C53.6435 43.3906 53.3697 43.2719 53.1598 43.0369C52.9498 42.8019 52.8449 42.487 52.8449 42.0945C52.8449 41.702 52.9498 41.3871 53.1598 41.152C53.3697 40.917 53.6435 40.7983 53.9813 40.7983V40.7961Z" fill="#32A849"/>
<path d="M60.4228 40.075C60.0691 39.8787 59.6812 39.7806 59.2567 39.7806C58.8323 39.7806 58.4444 39.8787 58.093 40.075C57.7393 40.2712 57.4586 40.5451 57.2532 40.8965C57.0456 41.2456 56.9429 41.6427 56.9429 42.0831C56.9429 42.5235 57.0456 42.9205 57.2532 43.2742C57.4609 43.6279 57.7415 43.9018 58.093 44.1003C58.4444 44.2965 58.8346 44.3947 59.2567 44.3947C59.6789 44.3947 60.0668 44.2965 60.4182 44.1003C60.7696 43.904 61.048 43.6279 61.2511 43.2742C61.4565 42.9205 61.5592 42.5235 61.5592 42.0831C61.5592 41.6427 61.4588 41.2479 61.2534 40.8965C61.0503 40.5451 60.7719 40.2712 60.4182 40.075H60.4228ZM60.1216 43.0346C59.9048 43.2742 59.6173 43.3929 59.259 43.3929C58.9008 43.3929 58.6064 43.2742 58.3896 43.0369C58.1728 42.7996 58.0656 42.4801 58.0656 42.0831C58.0656 41.686 58.1728 41.362 58.3896 41.127C58.6064 40.8919 58.8962 40.7755 59.259 40.7755C59.6218 40.7755 59.9071 40.8942 60.1216 41.1315C60.3384 41.3688 60.4456 41.686 60.4456 42.0831C60.4456 42.4801 60.3384 42.7928 60.1216 43.0324V43.0346Z" fill="#32A849"/>
<path d="M65.4244 42.6376L63.5875 39.8445H62.4922V44.3513H63.5875V41.5719L65.4244 44.3513H66.522V39.8445H65.4244V42.6376Z" fill="#32A849"/>
<path d="M67.394 40.7253H68.5898V44.3513H69.6874V40.7253H70.8808V39.8445H67.394V40.7253Z" fill="#32A849"/>
<path d="M74.9973 42.0671C75.1662 41.8321 75.2506 41.5628 75.2506 41.2639C75.2506 40.9992 75.189 40.7573 75.0635 40.5405C74.9403 40.3237 74.7532 40.1549 74.5021 40.0316C74.2534 39.9061 73.9499 39.8445 73.5939 39.8445H71.7524V44.349H72.85V42.649H73.1125L74.048 44.349H75.2871L74.2466 42.5646C74.5774 42.4664 74.8262 42.2999 74.995 42.0648L74.9973 42.0671ZM73.9842 41.7271C73.8837 41.8252 73.7331 41.8754 73.5323 41.8754H72.8523V40.7596H73.5323C73.7331 40.7596 73.8837 40.8098 73.9842 40.9079C74.0846 41.006 74.1348 41.1406 74.1348 41.3118C74.1348 41.4829 74.0846 41.6313 73.9842 41.7294V41.7271Z" fill="#32A849"/>
<path d="M79.5546 40.075C79.2032 39.8787 78.813 39.7806 78.3908 39.7806C77.9687 39.7806 77.5785 39.8787 77.2248 40.075C76.8711 40.2712 76.5904 40.5451 76.385 40.8965C76.1774 41.2456 76.0747 41.6427 76.0747 42.0831C76.0747 42.5235 76.1774 42.9205 76.385 43.2742C76.5927 43.6279 76.8734 43.9018 77.2248 44.1003C77.5785 44.2965 77.9664 44.3947 78.3908 44.3947C78.8153 44.3947 79.2009 44.2965 79.5523 44.1003C79.9038 43.904 80.1822 43.6279 80.3875 43.2742C80.5929 42.9205 80.6956 42.5235 80.6956 42.0831C80.6956 41.6427 80.5952 41.2479 80.3921 40.8965C80.189 40.5451 79.9106 40.2712 79.5569 40.075H79.5546ZM79.2534 43.0346C79.0366 43.2742 78.7491 43.3929 78.3908 43.3929C78.0326 43.3929 77.7382 43.2742 77.5214 43.0369C77.3047 42.7996 77.1974 42.4801 77.1974 42.0831C77.1974 41.686 77.3047 41.362 77.5214 41.127C77.7382 40.8919 78.028 40.7755 78.3908 40.7755C78.7537 40.7755 79.0389 40.8942 79.2534 41.1315C79.4702 41.3688 79.5774 41.686 79.5774 42.0831C79.5774 42.4801 79.4702 42.7928 79.2534 43.0324V43.0346Z" fill="#32A849"/>
<path d="M82.7211 39.8445H81.6235V44.3513H84.1587V43.5024H82.7211V39.8445Z" fill="#32A849"/>
<path d="M89.2915 41.9576C89.109 41.8686 88.8739 41.7727 88.5818 41.6746C88.292 41.581 88.0775 41.492 87.9406 41.4122C87.8037 41.33 87.7352 41.2182 87.7352 41.0722C87.7352 40.9398 87.7763 40.8371 87.8585 40.7664C87.9383 40.6957 88.0456 40.6614 88.1802 40.6614C88.3331 40.6614 88.4609 40.7025 88.559 40.7869C88.6571 40.8714 88.7096 40.9855 88.7188 41.1315H89.9076C89.8871 40.7071 89.7228 40.3785 89.4193 40.1411C89.1158 39.9038 88.7165 39.7852 88.219 39.7852C87.7216 39.7852 87.3359 39.9038 87.0324 40.1411C86.7289 40.3785 86.576 40.7071 86.576 41.1269C86.576 41.4099 86.6422 41.6381 86.7746 41.8138C86.9069 41.9895 87.0666 42.1218 87.2492 42.2108C87.434 42.2998 87.6714 42.3911 87.9612 42.4801C88.162 42.5394 88.3171 42.5942 88.4267 42.6398C88.5362 42.6878 88.6275 42.7471 88.7028 42.8201C88.7781 42.8931 88.8146 42.9844 88.8146 43.0962C88.8146 43.2286 88.7667 43.3335 88.6731 43.4066C88.5796 43.4819 88.4495 43.5184 88.2875 43.5184C88.1255 43.5184 87.9999 43.475 87.9018 43.386C87.8037 43.2993 87.7444 43.1715 87.7284 43.005H86.5601C86.5692 43.2993 86.6513 43.5526 86.8065 43.7625C86.9617 43.9725 87.1716 44.1299 87.4318 44.2372C87.6919 44.3444 87.9863 44.3969 88.3171 44.3969C88.648 44.3969 88.9469 44.3353 89.1957 44.2098C89.4444 44.0843 89.6338 43.9177 89.7639 43.7078C89.8939 43.4978 89.9601 43.2651 89.9601 43.0072C89.9601 42.738 89.8939 42.5166 89.7616 42.3455C89.6292 42.1743 89.4718 42.0443 89.2892 41.953L89.2915 41.9576Z" fill="#32A849"/>
<path d="M90.9575 44.3513H93.7164V43.4705H92.0551V42.4824H93.5247V41.6358H92.0551V40.7253H93.7164V39.8445H90.9575V44.3513Z" fill="#32A849"/>
<path d="M97.9939 42.0671C98.1628 41.8321 98.2472 41.5628 98.2472 41.2639C98.2472 40.9992 98.1856 40.7573 98.0601 40.5405C97.9369 40.3237 97.7497 40.1549 97.4987 40.0316C97.25 39.9061 96.9465 39.8445 96.5905 39.8445H94.749V44.349H95.8466V42.649H96.109L97.0469 44.349H98.286L97.2454 42.5646C97.5763 42.4664 97.825 42.2999 97.9939 42.0648V42.0671ZM96.9807 41.7271C96.8803 41.8252 96.7297 41.8754 96.5289 41.8754H95.8489V40.7596H96.5289C96.7297 40.7596 96.8803 40.8098 96.9807 40.9079C97.0811 41.006 97.1313 41.1406 97.1313 41.3118C97.1313 41.4829 97.0811 41.6313 96.9807 41.7294V41.7271Z" fill="#32A849"/>
<path d="M101.201 43.2468L100.083 39.8445H98.9146L100.514 44.3513H101.886L103.485 39.8445H102.324L101.201 43.2468Z" fill="#32A849"/>
<path d="M105.361 39.8445H104.263V44.349H105.361V39.8445Z" fill="#32A849"/>
<path d="M108.541 40.7961C108.751 40.7961 108.939 40.8463 109.103 40.9444C109.267 41.0425 109.395 41.1863 109.486 41.3734H110.693C110.566 40.8851 110.31 40.4994 109.929 40.2187C109.548 39.9358 109.089 39.7943 108.555 39.7943C108.119 39.7943 107.727 39.8924 107.385 40.0864C107.04 40.2803 106.773 40.5519 106.579 40.901C106.387 41.2502 106.292 41.6472 106.292 42.0922C106.292 42.5372 106.387 42.9342 106.579 43.2811C106.773 43.6279 107.04 43.8972 107.385 44.0934C107.729 44.2874 108.119 44.3855 108.555 44.3855C109.089 44.3855 109.548 44.2463 109.929 43.9656C110.31 43.685 110.563 43.3016 110.693 42.8133H109.486C109.397 43.0004 109.269 43.1441 109.103 43.2423C108.939 43.3404 108.751 43.3906 108.541 43.3906C108.204 43.3906 107.93 43.2719 107.72 43.0369C107.51 42.8019 107.405 42.487 107.405 42.0945C107.405 41.702 107.51 41.3871 107.72 41.152C107.93 40.917 108.204 40.7983 108.541 40.7983V40.7961Z" fill="#32A849"/>
<path d="M111.688 44.3513H114.447V43.4705H112.786V42.4824H114.256V41.6358H112.786V40.7253H114.447V39.8445H111.688V44.3513Z" fill="#32A849"/>
<path d="M118.082 41.9576C117.899 41.8686 117.664 41.7727 117.372 41.6746C117.08 41.581 116.866 41.492 116.731 41.4122C116.594 41.33 116.526 41.2182 116.526 41.0722C116.526 40.9398 116.567 40.8371 116.649 40.7664C116.729 40.6957 116.836 40.6614 116.971 40.6614C117.124 40.6614 117.251 40.7025 117.35 40.7869C117.448 40.8714 117.5 40.9855 117.509 41.1315H118.698C118.678 40.7071 118.513 40.3785 118.21 40.1411C117.906 39.9038 117.507 39.7852 117.01 39.7852C116.512 39.7852 116.126 39.9038 115.823 40.1411C115.519 40.3785 115.367 40.7071 115.367 41.1269C115.367 41.4099 115.433 41.6381 115.565 41.8138C115.697 41.9895 115.855 42.1218 116.04 42.2108C116.225 42.2998 116.462 42.3911 116.752 42.4801C116.952 42.5394 117.108 42.5942 117.217 42.6398C117.327 42.6878 117.418 42.7471 117.493 42.8201C117.569 42.8931 117.605 42.9844 117.605 43.0962C117.605 43.2286 117.557 43.3335 117.464 43.4066C117.37 43.4819 117.24 43.5184 117.078 43.5184C116.916 43.5184 116.79 43.475 116.692 43.386C116.594 43.2993 116.535 43.1715 116.519 43.005H115.351C115.36 43.2993 115.442 43.5526 115.597 43.7625C115.752 43.9725 115.962 44.1299 116.222 44.2372C116.482 44.3444 116.779 44.3969 117.108 44.3969C117.436 44.3969 117.737 44.3353 117.986 44.2098C118.235 44.0843 118.424 43.9177 118.554 43.7078C118.684 43.4978 118.751 43.2651 118.751 43.0072C118.751 42.738 118.684 42.5166 118.552 42.3455C118.42 42.1743 118.262 42.0443 118.08 41.953L118.082 41.9576Z" fill="#32A849"/>
<path d="M122.528 39.8445H121.43V44.3513H123.965V43.5024H122.528V39.8445Z" fill="#32A849"/>
<path d="M125.91 39.8445H124.812V44.3513H127.347V43.5024H125.91V39.8445Z" fill="#32A849"/>
<path d="M130.261 40.7961C130.471 40.7961 130.658 40.8463 130.822 40.9444C130.986 41.0425 131.114 41.1863 131.205 41.3734H132.41C132.282 40.8851 132.027 40.4994 131.648 40.2187C131.267 39.9358 130.808 39.7943 130.274 39.7943C129.839 39.7943 129.446 39.8924 129.104 40.0864C128.759 40.2803 128.492 40.5519 128.298 40.901C128.107 41.2502 128.011 41.6472 128.011 42.0922C128.011 42.5372 128.107 42.9342 128.298 43.2811C128.492 43.6279 128.759 43.8972 129.104 44.0934C129.448 44.2874 129.839 44.3855 130.274 44.3855C130.808 44.3855 131.267 44.2463 131.648 43.9656C132.029 43.685 132.282 43.3016 132.41 42.8133H131.205C131.116 43.0004 130.989 43.1441 130.822 43.2423C130.658 43.3404 130.471 43.3906 130.261 43.3906C129.923 43.3906 129.649 43.2719 129.439 43.0369C129.229 42.8019 129.124 42.487 129.124 42.0945C129.124 41.702 129.229 41.3871 129.439 41.152C129.649 40.917 129.923 40.7983 130.261 40.7983V40.7961Z" fill="#32A849"/>
<path d="M63.1288 46.9138C63.4186 47.0667 63.6445 47.2835 63.8042 47.5619C63.9639 47.8403 64.0438 48.1621 64.0438 48.5249C64.0438 48.8877 63.9639 49.2072 63.8042 49.4856C63.6445 49.7662 63.4186 49.983 63.1265 50.1359C62.8344 50.2888 62.4944 50.3664 62.111 50.3664H60.7305V46.6811H62.111C62.4989 46.6811 62.839 46.7587 63.1288 46.9116V46.9138ZM62.8458 49.3121C63.0352 49.1273 63.1288 48.8649 63.1288 48.5249C63.1288 48.1849 63.0352 47.9224 62.8458 47.7331C62.6564 47.5437 62.3917 47.4501 62.054 47.4501H61.6295V49.5928H62.054C62.394 49.5928 62.6564 49.5015 62.8458 49.3144V49.3121Z" fill="black"/>
<path d="M65.429 46.6834V48.8877C65.429 49.1091 65.4838 49.2779 65.591 49.3966C65.7006 49.5152 65.858 49.5746 66.068 49.5746C66.2779 49.5746 66.4399 49.5152 66.5517 49.3966C66.6635 49.2779 66.7206 49.1091 66.7206 48.8877V46.6834H67.6174V48.8832C67.6174 49.2117 67.5466 49.4901 67.4074 49.7183C67.2682 49.9465 67.0788 50.1177 66.8438 50.234C66.6065 50.3504 66.3441 50.4075 66.0543 50.4075C65.7645 50.4075 65.5043 50.3504 65.2738 50.2363C65.0457 50.1222 64.8631 49.9511 64.7308 49.7229C64.5984 49.4947 64.5322 49.214 64.5322 48.8854V46.6857H65.429V46.6834Z" fill="black"/>
<path d="M70.9927 48.7964C71.1228 48.963 71.1867 49.1524 71.1867 49.3669C71.1867 49.675 71.0794 49.9191 70.8626 50.0994C70.6481 50.2797 70.3469 50.3687 69.9636 50.3687H68.2476V46.6834H69.9065C70.2807 46.6834 70.5751 46.7701 70.7851 46.9412C70.9973 47.1124 71.1022 47.3451 71.1022 47.6395C71.1022 47.8563 71.0452 48.0366 70.9311 48.1803C70.817 48.3241 70.6664 48.4245 70.477 48.4793C70.6892 48.5249 70.8626 48.6299 70.9904 48.7964H70.9927ZM69.1444 48.1735H69.7331C69.8791 48.1735 69.9932 48.1415 70.0708 48.0754C70.1507 48.0115 70.1895 47.9156 70.1895 47.7901C70.1895 47.6646 70.1507 47.5665 70.0708 47.5026C69.9909 47.4364 69.8791 47.4022 69.7331 47.4022H69.1444V48.1735ZM70.1552 49.5403C70.2374 49.4719 70.2785 49.3738 70.2785 49.2437C70.2785 49.1136 70.2351 49.0132 70.1507 48.9402C70.064 48.8672 69.9476 48.8307 69.797 48.8307H69.1466V49.6453H69.8084C69.959 49.6453 70.0754 49.6111 70.1575 49.5426L70.1552 49.5403Z" fill="black"/>
<path d="M74.0018 49.716H72.6258L72.4045 50.3664H71.4644L72.797 46.6811H73.8353L75.1679 50.3664H74.2186L73.9973 49.716H74.0018ZM73.7714 49.0223L73.315 47.6737L72.8632 49.0223H73.7714Z" fill="black"/>
<path d="M76.4739 46.6834V50.3687H75.5771V46.6834H76.4739Z" fill="black"/>
<path d="M80.4963 48.1529V48.8991H78.187V48.1529H80.4963Z" fill="black"/>
<path d="M83.0043 50.2728C82.7898 50.1861 82.6209 50.056 82.4931 49.8849C82.3653 49.7138 82.2969 49.5061 82.29 49.2642H83.2462C83.2599 49.4011 83.3078 49.5061 83.3876 49.5768C83.4675 49.6476 83.5725 49.6841 83.7025 49.6841C83.8326 49.6841 83.9399 49.6544 84.0174 49.5928C84.095 49.5312 84.1338 49.4468 84.1338 49.3372C84.1338 49.246 84.1042 49.1707 84.0425 49.1113C83.9809 49.052 83.9056 49.0018 83.8166 48.963C83.7276 48.9242 83.5999 48.8809 83.4356 48.8329C83.1982 48.7599 83.0043 48.6846 82.8537 48.6116C82.7031 48.5386 82.573 48.429 82.4658 48.2853C82.3585 48.1415 82.3037 47.9544 82.3037 47.7239C82.3037 47.3794 82.427 47.1124 82.6757 46.9184C82.9244 46.7245 83.2484 46.6286 83.6478 46.6286C84.0471 46.6286 84.3803 46.7245 84.629 46.9184C84.8777 47.1124 85.0101 47.3839 85.0283 47.7308H84.0562C84.0494 47.6121 84.006 47.5186 83.9262 47.4501C83.8463 47.3816 83.7413 47.3474 83.6158 47.3474C83.5063 47.3474 83.4196 47.3771 83.3534 47.4341C83.2872 47.4912 83.253 47.5756 83.253 47.6829C83.253 47.8015 83.3078 47.8951 83.4219 47.9612C83.5337 48.0274 83.7094 48.1004 83.9467 48.1757C84.184 48.2556 84.378 48.3332 84.5263 48.4062C84.6746 48.4792 84.8024 48.5865 84.912 48.7257C85.0215 48.8649 85.074 49.0452 85.074 49.2665C85.074 49.4878 85.0215 49.6681 84.9142 49.8393C84.807 50.0104 84.6518 50.1473 84.4487 50.25C84.2456 50.3504 84.006 50.4006 83.7299 50.4006C83.4538 50.4006 83.2188 50.3573 83.0066 50.2705L83.0043 50.2728Z" fill="black"/>
<path d="M88.8166 46.6834V50.3687H87.9198V48.8512H86.5233V50.3687H85.6265V46.6834H86.5233V48.1278H87.9198V46.6834H88.8166Z" fill="black"/>
<path d="M91.7577 49.716H90.3817L90.1604 50.3664H89.2202L90.5529 46.6811H91.5911L92.9238 50.3664H91.9745L91.7531 49.716H91.7577ZM91.5272 49.0223L91.0709 47.6737L90.619 49.0223H91.5272Z" fill="black"/>
<path d="M95.213 50.3687L94.4463 48.9767H94.2318V50.3687H93.335V46.6834H94.841C95.1308 46.6834 95.3796 46.7336 95.5849 46.8363C95.7903 46.939 95.9432 47.0782 96.0436 47.2539C96.144 47.4296 96.1965 47.6281 96.1965 47.8449C96.1965 48.0913 96.128 48.3081 95.9888 48.5021C95.8496 48.6938 95.6465 48.8307 95.3773 48.9128L96.2284 50.371H95.2153L95.213 50.3687ZM94.2318 48.3423H94.7885C94.9528 48.3423 95.0761 48.3035 95.1582 48.2214C95.2404 48.1415 95.2814 48.0274 95.2814 47.8791C95.2814 47.7308 95.2404 47.6281 95.1582 47.5482C95.0761 47.4684 94.9528 47.4273 94.7885 47.4273H94.2318V48.3401V48.3423Z" fill="black"/>
<path d="M99.0649 46.6834V49.1935C99.0649 49.5814 98.9554 49.8803 98.7363 50.0903C98.5173 50.3002 98.2229 50.4052 97.851 50.4052C97.479 50.4052 97.1504 50.2957 96.9154 50.0743C96.6803 49.853 96.564 49.5403 96.564 49.1342H97.4562C97.4562 49.2871 97.4881 49.4034 97.5497 49.4833C97.6136 49.5632 97.7026 49.602 97.8236 49.602C97.9331 49.602 98.0153 49.5677 98.0769 49.497C98.1362 49.4285 98.1659 49.3258 98.1659 49.1935V46.6834H99.0649Z" fill="black"/>
<path d="M102.084 49.716H100.708L100.487 50.3664H99.5464L100.879 46.6811H101.917L103.25 50.3664H102.301L102.079 49.716H102.084ZM101.853 49.0223L101.397 47.6737L100.945 49.0223H101.853Z" fill="black"/>
<path d="M106.85 46.6834V50.3687H105.953V48.8512H104.557V50.3687H103.66V46.6834H104.557V48.1278H105.953V46.6834H106.85Z" fill="black"/>
<path d="M110.866 48.1529V48.8991H108.557V48.1529H110.866Z" fill="black"/>
<path d="M115.063 49.716H113.687L113.466 50.3664H112.526L113.859 46.6811H114.897L116.229 50.3664H115.28L115.059 49.716H115.063ZM114.833 49.0223L114.377 47.6737L113.925 49.0223H114.833Z" fill="black"/>
<path d="M118.946 46.6834V49.1935C118.946 49.5814 118.837 49.8803 118.618 50.0903C118.399 50.3002 118.104 50.4052 117.732 50.4052C117.36 50.4052 117.032 50.2957 116.797 50.0743C116.562 49.853 116.445 49.5403 116.445 49.1342H117.338C117.338 49.2871 117.369 49.4034 117.431 49.4833C117.495 49.5632 117.584 49.602 117.705 49.602C117.814 49.602 117.897 49.5677 117.958 49.497C118.018 49.4285 118.047 49.3258 118.047 49.1935V46.6834H118.946Z" fill="black"/>
<path d="M123.846 46.6834V50.3687H122.947V48.1598L122.123 50.3687H121.398L120.567 48.1529V50.3687H119.67V46.6834H120.732L121.765 49.2346L122.79 46.6834H123.846Z" fill="black"/>
<path d="M126.786 49.716H125.41L125.188 50.3664H124.248L125.581 46.6811H126.619L127.952 50.3664H127.002L126.781 49.716H126.786ZM126.555 49.0223L126.099 47.6737L125.647 49.0223H126.555Z" fill="black"/>
<path d="M131.657 50.3687H130.758L129.257 48.0959V50.3687H128.36V46.6834H129.257L130.758 48.9676V46.6834H131.657V50.3687Z" fill="black"/>
</svg>
