<svg xmlns="http://www.w3.org/2000/svg" width="93" height="12" fill="none" viewBox="0 0 93 12"><path fill="#ed1c24" d="M6.405 10.907c-.622.086-1.002.114-1.61.114-1.596 0-2.627-.472-3.378-1.26C.272 8.632 0 6.714 0 5.526c0-.952.157-2.834 1.667-4.287C2.362.565 3.45 0 5.074 0 6.52 0 7.221.422 7.221.422l.365 1.575c-.057-.036-.895-.508-2.147-.508-1.174 0-1.86.279-2.57 1.001-.772.78-1.03 1.74-1.03 3.042 0 1.725.458 2.698 1.102 3.263.508.48 1.231.666 2.019.666.787 0 1.116-.129 1.116-.129V6.377H4.709v-1.36h3.063v5.59c-.537.142-.823.228-1.36.307zM16.41 9.182c-.68 1.31-1.933 1.86-3.379 1.86s-2.698-.608-3.327-1.875c-.365-.715-.437-1.374-.437-2.247V.136h1.782v6.927c0 1.246.451 2.448 1.983 2.448 1.61 0 2.032-1.202 2.032-2.448V.136h1.81V6.92c0 .902-.085 1.553-.457 2.262zM24.24 1.667H22.07v9.182h-1.79V1.667h-2.597l.322-1.531h6.599zM32.948 10.85V2.582l-2.877 3.228-2.784-3.113v8.151h-1.782V.136h1.725l2.841 3.141L32.948.136h1.76v10.713zM40.922.136h-1.947l-3.27 10.713h1.767l.609-2.082h3.707l.58 2.082h1.903zm-2.448 7.178 1.475-5.232h.028l1.453 5.232zM51.349 10.85l-4.366-7.358v7.357h-1.739V.136h1.596l4.351 7.235V.136h1.754v10.713zM62.37.136v10.713h-1.596L56.408 3.5v7.35H54.67V.136h1.604l4.344 7.235V.136z"/><path fill="#6d6e71" d="M74.465 5.976c-.68.565-1.582.837-2.834.837h-1.167v4.13h-2.032V0h2.884c1.166 0 2.168.157 2.834.573.923.572 1.424 1.467 1.424 2.705 0 1.03-.28 2.01-1.11 2.705zM71.423 1.61h-.952v3.607h.952c1.41 0 1.91-.601 1.91-1.832 0-1.23-.557-1.768-1.91-1.768zM81.184 10.943h-2.261L75.588 0h2.204l1.703 6.405c.208.809.38 1.632.573 2.534.172-.838.365-1.69.594-2.512l1.803-6.42h2.104L81.184 10.95zM91.54 10.456c-.573.315-1.18.487-2.412.487h-3.492V0h3.02c1.374 0 1.875.143 2.433.38.866.364 1.496 1.252 1.496 2.34s-.623 2.053-1.825 2.404c1.445.33 2.24 1.202 2.24 2.612 0 1.188-.522 2.212-1.46 2.72m-2.712-8.824h-1.181v2.834h1.266c1.074 0 1.546-.508 1.546-1.424 0-.967-.68-1.41-1.631-1.41m.071 4.43h-1.252v3.242h1.445c1.167 0 1.654-.666 1.654-1.632 0-1.124-.594-1.61-1.84-1.61z"/></svg>