<svg xmlns="http://www.w3.org/2000/svg" width="72" height="15" fill="none" viewBox="0 0 72 15"><path fill="#00c1bc" fill-rule="evenodd" d="M69.793 4.339c.616 0 1.116.5 1.116 1.116v6.074a3.471 3.471 0 0 1-6.36 1.923A5.44 5.44 0 0 1 60.743 15c-1.48 0-2.822-.59-3.805-1.548A3.47 3.47 0 0 1 54.049 15a3.47 3.47 0 0 1-2.89-1.548A5.44 5.44 0 0 1 47.356 15c-1.48 0-2.822-.59-3.804-1.548a3.468 3.468 0 0 1-5.596.25A4.7 4.7 0 0 1 34.712 15c-1.258 0-2.4-.494-3.245-1.298a3.468 3.468 0 0 1-5.595-.25 5.455 5.455 0 1 1-.581-8.306V1.24a1.116 1.116 0 1 1 2.23 0v10.289a1.24 1.24 0 0 0 2.48 0V5.455a1.116 1.116 0 1 1 2.231 0v4.834a2.48 2.48 0 1 0 4.959 0V5.455a1.116 1.116 0 1 1 2.231 0v6.074a1.24 1.24 0 0 0 2.48 0V1.239a1.116 1.116 0 1 1 2.231 0v3.907a5.454 5.454 0 0 1 8.678 4.4v1.983a1.24 1.24 0 0 0 2.479 0V9.545a5.454 5.454 0 0 1 8.715-4.373 1.115 1.115 0 0 1 2.194.283v6.074a1.24 1.24 0 0 0 2.48 0V5.455c0-.617.499-1.116 1.115-1.116m-9.05 8.43a3.223 3.223 0 1 0 0-6.447 3.223 3.223 0 0 0 0 6.447m-13.388 0a3.223 3.223 0 1 0 0-6.447 3.223 3.223 0 0 0 0 6.447m-25.29 0a3.223 3.223 0 1 0 0-6.447 3.223 3.223 0 0 0 0 6.447M69.794 2.727a1.364 1.364 0 1 1 0-2.727 1.364 1.364 0 0 1 0 2.727" clip-rule="evenodd"/><path fill="#1a7ba1" fill-rule="evenodd" d="M13.017 2.727a1.364 1.364 0 1 1 0-2.727 1.364 1.364 0 0 1 0 2.727m0 1.612c.616 0 1.115.5 1.115 1.116v6.074a3.471 3.471 0 0 1-6.922.372h-.02V8.8a2.48 2.48 0 1 0-4.959 0v4.835a1.116 1.116 0 1 1-2.231 0V1.24a1.116 1.116 0 1 1 2.231 0v3.556a4.71 4.71 0 0 1 7.19 4.005v2.728a1.24 1.24 0 0 0 2.48 0V5.455c0-.617.5-1.116 1.116-1.116" clip-rule="evenodd"/></svg>