<svg xmlns="http://www.w3.org/2000/svg" width="102" height="16" fill="none" viewBox="0 0 102 16"><path fill="gold" stroke="gold" stroke-linecap="round" stroke-linejoin="round" stroke-width="1.333" d="m8.143 1.334 2.207 4.47 4.936.722-3.572 3.479.843 4.914-4.414-2.321-4.414 2.321.842-4.914L1 6.526l4.936-.721zM29.572 1.334l2.207 4.47 4.935.722-3.571 3.479.843 4.914-4.414-2.321-4.415 2.321.843-4.914-3.571-3.479 4.935-.721zM51 1.334l2.207 4.47 4.936.722-3.572 3.479.843 4.914L51 12.598l-4.414 2.321.842-4.914-3.571-3.479 4.936-.721zM72.429 1.334l2.207 4.47 4.935.722L76 10.005l.843 4.914-4.415-2.321-4.414 2.321.843-4.914-3.571-3.479 4.935-.721zM93.857 1.334l2.207 4.47 4.936.722-3.571 3.479.843 4.914-4.415-2.321-4.414 2.321.843-4.914-3.572-3.479 4.936-.721z"/></svg>