<svg width="102" height="16" viewBox="0 0 102 16" fill="none" xmlns="http://www.w3.org/2000/svg">
<path d="M8.14286 1.3335L10.35 5.80492L15.2857 6.52635L11.7143 10.0049L12.5571 14.9192L8.14286 12.5978L3.72857 14.9192L4.57143 10.0049L1 6.52635L5.93571 5.80492L8.14286 1.3335Z" fill="#FFD700" stroke="#FFD700" stroke-width="1.33333" stroke-linecap="round" stroke-linejoin="round"/>
<path d="M29.5716 1.3335L31.7787 5.80492L36.7144 6.52635L33.143 10.0049L33.9859 14.9192L29.5716 12.5978L25.1573 14.9192L26.0001 10.0049L22.4287 6.52635L27.3644 5.80492L29.5716 1.3335Z" fill="#FFD700" stroke="#FFD700" stroke-width="1.33333" stroke-linecap="round" stroke-linejoin="round"/>
<path d="M50.9998 1.3335L53.2069 5.80492L58.1426 6.52635L54.5712 10.0049L55.4141 14.9192L50.9998 12.5978L46.5855 14.9192L47.4284 10.0049L43.8569 6.52635L48.7926 5.80492L50.9998 1.3335Z" fill="#FFD700" stroke="#FFD700" stroke-width="1.33333" stroke-linecap="round" stroke-linejoin="round"/>
<path d="M72.4285 1.3335L74.6356 5.80492L79.5714 6.52635L75.9999 10.0049L76.8428 14.9192L72.4285 12.5978L68.0142 14.9192L68.8571 10.0049L65.2856 6.52635L70.2214 5.80492L72.4285 1.3335Z" fill="#FFD700" stroke="#FFD700" stroke-width="1.33333" stroke-linecap="round" stroke-linejoin="round"/>
<path d="M93.8572 1.3335L96.0644 5.80492L101 6.52635L97.4286 10.0049L98.2715 14.9192L93.8572 12.5978L89.4429 14.9192L90.2858 10.0049L86.7144 6.52635L91.6501 5.80492L93.8572 1.3335Z" fill="#FFD700" stroke="#FFD700" stroke-width="1.33333" stroke-linecap="round" stroke-linejoin="round"/>
</svg>
