<svg width="163" height="86" viewBox="0 0 163 86" fill="none" xmlns="http://www.w3.org/2000/svg">
<path fill-rule="evenodd" clip-rule="evenodd" d="M0.103699 8.99922C-1.28123 44.3961 11.1439 70.8695 41.1132 86C55.5708 78.6997 65.9466 68.7585 72.6553 56.4512H68.4417C67.9875 57.2249 67.5165 57.9931 67.0231 58.7528C60.5302 68.8006 51.5787 76.3055 41.1132 81.8676C30.6478 76.3027 21.6962 68.8006 15.2033 58.7528C6.10878 44.6821 3.34454 27.9649 3.70058 11.4719C29.1311 1.07374 53.0954 1.07374 78.5258 11.4719C78.6576 17.5723 78.3632 23.7064 77.4773 29.7226H81.1864C82.1059 23.2073 82.4087 16.2939 82.1227 8.99922C54.2392 -2.99974 27.9873 -2.99974 0.103699 8.99922Z" fill="white"/>
<path fill-rule="evenodd" clip-rule="evenodd" d="M7.34265 13.9754C7.31742 28.8731 10.0929 44.0849 18.2847 56.7595C24.0627 65.6998 31.9265 72.5123 41.1135 77.6848C50.3006 72.5123 58.1644 65.6998 63.9424 56.7595L64.1386 56.4511H61.9463C56.586 64.4831 49.4315 70.7377 41.1107 75.5681C32.5573 70.6003 25.2289 64.1271 19.8238 55.7614C12.0609 43.7513 9.3107 29.3609 9.17894 15.2369C30.8528 7.16286 51.3687 7.16286 73.0425 15.2369C72.9977 20.0673 72.6472 24.9314 71.8931 29.717H73.7518C74.5536 24.5137 74.8928 19.2235 74.8844 13.9697C51.9434 5.13313 30.2836 5.13313 7.33984 13.9697L7.34265 13.9754Z" fill="white"/>
<path fill-rule="evenodd" clip-rule="evenodd" d="M40.9856 27.3875L40.98 27.3959C40.652 27.3427 40.3155 27.3146 39.9735 27.3146C39.6315 27.3146 39.3287 27.3399 39.0175 27.3875C37.2653 22.958 34.5824 21.9039 31.5378 22.173C33.9712 23.1234 36.1159 24.9765 36.9261 28.094C34.9637 29.1734 33.632 31.2592 33.632 33.659C33.632 34.6318 33.8507 35.5513 34.2432 36.3783C33.3601 37.3119 32.5779 38.4529 31.9359 39.7594H28.7203C27.3746 39.7594 27.826 39.1314 27.5793 38.0717C27.0859 35.9494 25.8271 34.9878 24.0216 34.8448C24.7786 35.7139 25.3169 37.1297 25.6028 39.1762C25.8747 41.1303 26.6485 42.1592 28.7595 42.1592H30.9715C30.6799 43.0619 30.4444 44.0179 30.2762 45.0103H26.7887C24.1029 45.0103 23.9347 46.5018 23.5282 48.6184C23.2254 50.1884 22.7236 50.8079 22.0508 51.5789C23.7189 51.4471 24.9216 51.2481 25.4851 49.5379C25.8551 48.4137 25.3028 47.4073 26.7522 47.4073H30.0043C29.9791 47.8559 29.9622 48.31 29.9622 48.767C29.9622 49.6585 30.0127 50.5304 30.1136 51.3798C28.8661 52.0275 26.9933 52.9526 26.1187 53.6675C24.9973 54.5842 24.8711 55.5599 24.8767 56.7906C24.8851 58.1923 25.1571 59.011 23.5815 60.1239C25.4374 60.3286 26.6177 59.2997 26.9401 57.8139C27.1503 56.841 26.7186 55.9692 27.3382 55.2655C27.6578 54.901 29.41 53.9843 30.4501 53.4432C31.7537 59.496 35.5244 63.875 39.9735 63.875V29.7228H44.9469C44.4311 29.0724 43.7919 28.5258 43.063 28.1164L43.0742 28.0912C43.8844 24.9709 46.0291 23.1178 48.4625 22.1702C45.4151 21.9039 42.735 22.958 40.9828 27.3847L40.9856 27.3875Z" fill="white"/>
<path d="M47.1157 30.6729L41.4414 46.3528H45.4392L46.3784 43.5829H52.2293L53.1684 46.3528H57.2111L51.5368 30.6729H47.1157ZM47.382 40.6337L49.3024 34.8921L51.2452 40.6337H47.382Z" fill="white"/>
<path d="M66.1226 33.9784C66.8515 33.9784 67.5047 34.1494 68.0767 34.4914C68.6486 34.8335 69.0943 35.3325 69.4055 35.9885H73.6051C73.1594 34.2896 72.2707 32.9495 70.9474 31.9683C69.6214 30.9871 68.029 30.4937 66.1675 30.4937C64.648 30.4937 63.2911 30.8329 62.0912 31.5085C60.8913 32.187 59.9577 33.1317 59.2877 34.3457C58.6177 35.5596 58.2812 36.9417 58.2812 38.4892C58.2812 40.0367 58.6177 41.4161 59.2877 42.6216C59.9577 43.8271 60.8913 44.769 62.0912 45.4475C63.2911 46.1259 64.648 46.4652 66.1675 46.4652C68.029 46.4652 69.6214 45.9774 70.9474 45.0017C72.2735 44.0261 73.1594 42.6917 73.6051 40.9927H69.4055C69.0915 41.6488 68.6486 42.1478 68.0767 42.4898C67.5047 42.8318 66.8515 43.0028 66.1226 43.0028C64.9452 43.0028 63.992 42.5935 63.2631 41.7749C62.5342 40.9563 62.1697 39.8601 62.1697 38.492C62.1697 37.1239 62.5342 36.0278 63.2631 35.2091C63.992 34.3905 64.9452 33.9812 66.1226 33.9812V33.9784Z" fill="white"/>
<path d="M83.1441 33.9784C83.873 33.9784 84.5234 34.1494 85.0981 34.4914C85.6701 34.8335 86.1158 35.3325 86.427 35.9885H90.6266C90.1809 34.2896 89.2922 32.9495 87.9689 31.9683C86.6429 30.9871 85.0505 30.4937 83.189 30.4937C81.6695 30.4937 80.3126 30.8329 79.1127 31.5085C77.9128 32.187 76.9792 33.1317 76.3092 34.3457C75.6392 35.5596 75.3027 36.9417 75.3027 38.4892C75.3027 40.0367 75.6392 41.4161 76.3092 42.6216C76.9792 43.8271 77.9128 44.769 79.1127 45.4475C80.3126 46.1259 81.6695 46.4652 83.189 46.4652C85.0505 46.4652 86.6429 45.9774 87.9689 45.0017C89.295 44.0261 90.1809 42.6917 90.6266 40.9927H86.427C86.1158 41.6488 85.6701 42.1478 85.0981 42.4898C84.5262 42.8318 83.873 43.0028 83.1441 43.0028C81.9666 43.0028 81.0134 42.5935 80.2845 41.7749C79.5556 40.9563 79.1912 39.8601 79.1912 38.492C79.1912 37.1239 79.5556 36.0278 80.2845 35.2091C81.0134 34.3905 81.9666 33.9812 83.1441 33.9812V33.9784Z" fill="white"/>
<path d="M102.219 40.0563C102.219 40.9954 101.981 41.7159 101.505 42.2234C101.028 42.7308 100.344 42.9831 99.4496 42.9831C98.5553 42.9831 97.8796 42.7308 97.4171 42.2234C96.9545 41.7187 96.7246 40.9954 96.7246 40.0563V30.6758H92.9062V40.0338C92.9062 41.4356 93.1894 42.6215 93.7557 43.5971C94.322 44.5727 95.093 45.3016 96.0686 45.7866C97.0442 46.2716 98.1488 46.5127 99.3851 46.5127C100.621 46.5127 101.743 46.2688 102.747 45.7754C103.75 45.2848 104.552 44.5559 105.146 43.5859C105.741 42.6187 106.041 41.4356 106.041 40.0338V30.6758H102.222V40.0563H102.219Z" fill="white"/>
<path d="M120.006 38.4022C120.595 37.5836 120.89 36.6528 120.89 35.6099C120.89 34.6876 120.674 33.8493 120.242 33.098C119.81 32.3467 119.16 31.7551 118.288 31.3234C117.416 30.8917 116.362 30.6758 115.128 30.6758H108.717V46.3557H112.535V40.4376H113.452L116.712 46.3557H121.024L117.405 40.146C118.551 39.804 119.418 39.2236 120.006 38.4022ZM116.477 37.2191C116.126 37.5612 115.602 37.7322 114.901 37.7322H112.535V33.8465H114.901C115.602 33.8465 116.126 34.0175 116.477 34.3596C116.827 34.7016 117.001 35.1726 117.001 35.7669C117.001 36.3921 116.827 36.8771 116.477 37.2191Z" fill="white"/>
<path d="M127.926 30.6729L122.252 46.3528H126.25L127.189 43.5829H133.04L133.979 46.3528H138.022L132.347 30.6729H127.926ZM128.195 40.6337L130.116 34.8921L132.059 40.6337H128.195Z" fill="white"/>
<path d="M138.895 33.7343H143.049V46.3528H146.868V33.7343H151.022V30.6729H138.895V33.7343Z" fill="white"/>
<path d="M152.941 46.3528H162.546V43.2942H156.763V39.8543H161.876V36.905H156.763V33.7343H162.546V30.6729H152.941V46.3528Z" fill="white"/>
<path d="M44.7478 49.182C44.4422 49.0306 44.0694 48.9521 43.6292 48.9521H41.4453V54.4862H42.7938V52.4986H43.632C44.0834 52.4986 44.4619 52.4173 44.7675 52.2547C45.073 52.0921 45.2973 51.8762 45.4459 51.6127C45.5917 51.3463 45.6674 51.0548 45.6674 50.7324C45.6674 50.3847 45.5917 50.0792 45.4375 49.81C45.2861 49.5409 45.0562 49.3306 44.7506 49.1792L44.7478 49.182ZM44.1002 51.2482C43.9741 51.3688 43.7834 51.4304 43.5255 51.4304H42.791V50.0427H43.5255C43.7834 50.0427 43.9741 50.1044 44.1002 50.2249C44.2264 50.3455 44.2881 50.5165 44.2881 50.738C44.2881 50.9594 44.2264 51.1305 44.1002 51.251V51.2482Z" fill="white"/>
<path d="M46.7559 54.4891H50.1453V53.4069H48.1043V52.193H49.9098V51.1529H48.1043V50.0343H50.1453V48.9521H46.7559V54.4891Z" fill="white"/>
<path d="M54.6153 51.5478C54.3938 51.4385 54.1023 51.3207 53.7434 51.2002C53.3846 51.0853 53.1238 50.9759 52.9556 50.8778C52.7874 50.7769 52.7033 50.6395 52.7033 50.4601C52.7033 50.2975 52.7538 50.1713 52.8519 50.0844C52.9528 49.9975 53.0818 49.9554 53.2472 49.9554C53.435 49.9554 53.592 50.0059 53.7126 50.1096C53.8331 50.2134 53.8976 50.3535 53.9088 50.533H55.3666C55.3414 50.0115 55.1395 49.6078 54.7667 49.3163C54.3938 49.0247 53.9032 48.8789 53.292 48.8789C52.6809 48.8789 52.2071 49.0247 51.8342 49.3163C51.4614 49.6078 51.2735 50.0115 51.2735 50.5274C51.2735 50.875 51.3548 51.1553 51.5174 51.3712C51.68 51.5871 51.8735 51.7497 52.1006 51.859C52.3276 51.9684 52.6192 52.0805 52.9753 52.1898C53.222 52.2627 53.4126 52.33 53.5472 52.3861C53.6817 52.4449 53.7939 52.5178 53.8864 52.6076C53.9789 52.6973 54.0238 52.8094 54.0238 52.9468C54.0238 53.1094 53.9649 53.2383 53.8499 53.3281C53.735 53.4206 53.5752 53.4654 53.3761 53.4654C53.1771 53.4654 53.0229 53.4122 52.9024 53.3028C52.7818 53.1963 52.7089 53.0393 52.6893 52.8346H51.2539C51.2651 53.1963 51.366 53.5075 51.5567 53.7654C51.7473 54.0233 52.0052 54.2168 52.3248 54.3485C52.6444 54.4803 53.0089 54.5448 53.4126 54.5448C53.8163 54.5448 54.1864 54.4691 54.4919 54.3149C54.7975 54.1607 55.0302 53.956 55.19 53.6981C55.3498 53.4402 55.4311 53.1542 55.4311 52.8374C55.4311 52.5066 55.3498 52.2347 55.1872 52.0244C55.0246 51.8142 54.8312 51.6544 54.6069 51.5422L54.6153 51.5478Z" fill="white"/>
<path d="M56.3613 50.0343H57.8276V54.4891H59.176V50.0343H60.6423V48.9521H56.3613V50.0343Z" fill="white"/>
<path d="M66.3198 50.1204C66.5777 50.1204 66.8076 50.1821 67.0094 50.3026C67.2113 50.4232 67.3683 50.5998 67.4804 50.8297H68.9607C68.8037 50.2297 68.4897 49.7559 68.0215 49.4111C67.5533 49.0635 66.9926 48.8896 66.3338 48.8896C65.7983 48.8896 65.3161 49.0102 64.8956 49.2485C64.4723 49.4868 64.1415 49.8204 63.906 50.2493C63.6705 50.6783 63.5527 51.1661 63.5527 51.7128C63.5527 52.2595 63.6705 52.7473 63.906 53.1734C64.1415 53.5995 64.4723 53.9303 64.8956 54.1714C65.3189 54.4097 65.7983 54.5303 66.3338 54.5303C66.9898 54.5303 67.5533 54.3593 68.0215 54.0144C68.4897 53.6696 68.8009 53.1986 68.9607 52.5987H67.4804C67.3711 52.8286 67.2141 53.0052 67.0094 53.1257C66.8076 53.2463 66.5777 53.308 66.3198 53.308C65.9049 53.308 65.5684 53.1622 65.3105 52.8734C65.0526 52.5847 64.9236 52.1978 64.9236 51.7156C64.9236 51.2334 65.0526 50.8465 65.3105 50.5577C65.5684 50.269 65.9049 50.1232 66.3198 50.1232V50.1204Z" fill="white"/>
<path d="M74.2324 49.2352C73.7978 48.9941 73.3212 48.8735 72.7998 48.8735C72.2783 48.8735 71.8017 48.9941 71.37 49.2352C70.9355 49.4763 70.5906 49.8127 70.3383 50.2444C70.0832 50.6734 69.957 51.1612 69.957 51.7023C69.957 52.2433 70.0832 52.7311 70.3383 53.1657C70.5934 53.6002 70.9383 53.9366 71.37 54.1805C71.8017 54.4216 72.2811 54.5422 72.7998 54.5422C73.3184 54.5422 73.795 54.4216 74.2268 54.1805C74.6585 53.9394 75.0005 53.6002 75.25 53.1657C75.5023 52.7311 75.6285 52.2433 75.6285 51.7023C75.6285 51.1612 75.5051 50.6762 75.2528 50.2444C75.0033 49.8127 74.6613 49.4763 74.2268 49.2352H74.2324ZM73.8623 52.8713C73.596 53.1657 73.2427 53.3115 72.8026 53.3115C72.3624 53.3115 72.0008 53.1657 71.7345 52.8741C71.4681 52.5826 71.3364 52.1901 71.3364 51.7023C71.3364 51.2145 71.4681 50.8164 71.7345 50.5276C72.0008 50.2388 72.3568 50.0959 72.8026 50.0959C73.2483 50.0959 73.5988 50.2416 73.8623 50.5332C74.1286 50.8248 74.2604 51.2145 74.2604 51.7023C74.2604 52.1901 74.1286 52.5741 73.8623 52.8685V52.8713Z" fill="white"/>
<path d="M80.3798 52.3836L78.123 48.9521H76.7773V54.4891H78.123V51.0744L80.3798 54.4891H81.7283V48.9521H80.3798V52.3836Z" fill="white"/>
<path d="M82.7988 50.0343H84.2679V54.4891H85.6163V50.0343H87.0826V48.9521H82.7988V50.0343Z" fill="white"/>
<path d="M92.1389 51.6828C92.3464 51.394 92.4501 51.0632 92.4501 50.6959C92.4501 50.3707 92.3744 50.0735 92.2202 49.8072C92.0688 49.5409 91.8389 49.3334 91.5306 49.182C91.225 49.0278 90.8521 48.9521 90.4148 48.9521H88.1523V54.4862H89.5008V52.3976H89.8232L90.9727 54.4862H92.495L91.2166 52.2939C91.6231 52.1734 91.9286 51.9687 92.1361 51.6799L92.1389 51.6828ZM90.8942 51.265C90.7708 51.3856 90.5858 51.4473 90.3391 51.4473H89.5036V50.0763H90.3391C90.5858 50.0763 90.7708 50.138 90.8942 50.2586C91.0175 50.3791 91.0792 50.5445 91.0792 50.7548C91.0792 50.9651 91.0175 51.1473 90.8942 51.2678V51.265Z" fill="white"/>
<path d="M97.7382 49.2352C97.3065 48.9941 96.8271 48.8735 96.3084 48.8735C95.7898 48.8735 95.3104 48.9941 94.8759 49.2352C94.4413 49.4763 94.0965 49.8127 93.8442 50.2444C93.589 50.6734 93.4629 51.1612 93.4629 51.7023C93.4629 52.2433 93.589 52.7311 93.8442 53.1657C94.0993 53.6002 94.4441 53.9366 94.8759 54.1805C95.3104 54.4216 95.787 54.5422 96.3084 54.5422C96.8299 54.5422 97.3037 54.4216 97.7354 54.1805C98.1672 53.9394 98.5092 53.6002 98.7615 53.1657C99.0138 52.7311 99.14 52.2433 99.14 51.7023C99.14 51.1612 99.0166 50.6762 98.7671 50.2444C98.5176 49.8127 98.1756 49.4763 97.741 49.2352H97.7382ZM97.3682 52.8713C97.1018 53.1657 96.7486 53.3115 96.3084 53.3115C95.8683 53.3115 95.5066 53.1657 95.2403 52.8741C94.974 52.5826 94.8422 52.1901 94.8422 51.7023C94.8422 51.2145 94.974 50.8164 95.2403 50.5276C95.5066 50.2388 95.8627 50.0959 96.3084 50.0959C96.7542 50.0959 97.1046 50.2416 97.3682 50.5332C97.6345 50.8248 97.7663 51.2145 97.7663 51.7023C97.7663 52.1901 97.6345 52.5741 97.3682 52.8685V52.8713Z" fill="white"/>
<path d="M101.63 48.9521H100.281V54.4891H103.396V53.4461H101.63V48.9521Z" fill="white"/>
<path d="M109.701 51.5478C109.477 51.4385 109.188 51.3207 108.83 51.2002C108.474 51.0853 108.21 50.9759 108.042 50.8778C107.874 50.7769 107.79 50.6395 107.79 50.4601C107.79 50.2975 107.84 50.1713 107.941 50.0844C108.039 49.9975 108.171 49.9554 108.336 49.9554C108.524 49.9554 108.681 50.0059 108.802 50.1096C108.922 50.2134 108.987 50.3535 108.998 50.533H110.458C110.433 50.0115 110.231 49.6078 109.858 49.3163C109.486 49.0247 108.995 48.8789 108.384 48.8789C107.773 48.8789 107.299 49.0247 106.926 49.3163C106.553 49.6078 106.365 50.0115 106.365 50.5274C106.365 50.875 106.447 51.1553 106.609 51.3712C106.772 51.5871 106.968 51.7497 107.192 51.859C107.419 51.9684 107.711 52.0805 108.067 52.1898C108.314 52.2627 108.504 52.33 108.639 52.3861C108.774 52.4449 108.886 52.5178 108.978 52.6076C109.071 52.6973 109.116 52.8094 109.116 52.9468C109.116 53.1094 109.057 53.2383 108.942 53.3281C108.827 53.4206 108.667 53.4654 108.468 53.4654C108.269 53.4654 108.115 53.4122 107.994 53.3028C107.874 53.1963 107.801 53.0393 107.781 52.8346H106.346C106.357 53.1963 106.458 53.5075 106.648 53.7654C106.839 54.0233 107.097 54.2168 107.417 54.3485C107.736 54.4803 108.098 54.5448 108.504 54.5448C108.911 54.5448 109.278 54.4691 109.584 54.3149C109.889 54.1607 110.122 53.956 110.282 53.6981C110.442 53.4402 110.523 53.1542 110.523 52.8374C110.523 52.5066 110.442 52.2347 110.279 52.0244C110.116 51.8142 109.923 51.6544 109.699 51.5422L109.701 51.5478Z" fill="white"/>
<path d="M111.748 54.4891H115.137V53.4069H113.097V52.193H114.902V51.1529H113.097V50.0343H115.137V48.9521H111.748V54.4891Z" fill="white"/>
<path d="M120.393 51.6828C120.6 51.394 120.704 51.0632 120.704 50.6959C120.704 50.3707 120.628 50.0735 120.474 49.8072C120.323 49.5409 120.093 49.3334 119.784 49.182C119.479 49.0278 119.106 48.9521 118.669 48.9521H116.406V54.4862H117.755V52.3976H118.077L119.229 54.4862H120.752L119.473 52.2939C119.88 52.1734 120.185 51.9687 120.393 51.6799V51.6828ZM119.148 51.265C119.025 51.3856 118.84 51.4473 118.593 51.4473H117.758V50.0763H118.593C118.84 50.0763 119.025 50.138 119.148 50.2586C119.271 50.3791 119.333 50.5445 119.333 50.7548C119.333 50.9651 119.271 51.1473 119.148 51.2678V51.265Z" fill="white"/>
<path d="M124.333 53.1322L122.959 48.9521H121.523L123.489 54.4891H125.174L127.139 48.9521H125.712L124.333 53.1322Z" fill="white"/>
<path d="M129.442 48.9521H128.094V54.4862H129.442V48.9521Z" fill="white"/>
<path d="M133.35 50.1204C133.608 50.1204 133.838 50.1821 134.04 50.3026C134.242 50.4232 134.399 50.5998 134.511 50.8297H135.994C135.837 50.2297 135.523 49.7559 135.055 49.4111C134.587 49.0635 134.023 48.8896 133.367 48.8896C132.832 48.8896 132.349 49.0102 131.929 49.2485C131.505 49.4868 131.177 49.8204 130.939 50.2493C130.704 50.6783 130.586 51.1661 130.586 51.7128C130.586 52.2595 130.704 52.7473 130.939 53.1734C131.177 53.5995 131.505 53.9303 131.929 54.1714C132.352 54.4097 132.832 54.5303 133.367 54.5303C134.023 54.5303 134.587 54.3593 135.055 54.0144C135.523 53.6696 135.834 53.1986 135.994 52.5987H134.511C134.401 52.8286 134.244 53.0052 134.04 53.1257C133.838 53.2463 133.608 53.308 133.35 53.308C132.935 53.308 132.599 53.1622 132.341 52.8734C132.083 52.5847 131.954 52.1978 131.954 51.7156C131.954 51.2334 132.083 50.8465 132.341 50.5577C132.599 50.269 132.935 50.1232 133.35 50.1232V50.1204Z" fill="white"/>
<path d="M137.217 54.4891H140.606V53.4069H138.565V52.193H140.371V51.1529H138.565V50.0343H140.606V48.9521H137.217V54.4891Z" fill="white"/>
<path d="M145.073 51.5478C144.848 51.4385 144.56 51.3207 144.201 51.2002C143.842 51.0853 143.578 50.9759 143.413 50.8778C143.245 50.7769 143.161 50.6395 143.161 50.4601C143.161 50.2975 143.211 50.1713 143.312 50.0844C143.41 49.9975 143.542 49.9554 143.707 49.9554C143.895 49.9554 144.052 50.0059 144.173 50.1096C144.293 50.2134 144.358 50.3535 144.369 50.533H145.83C145.804 50.0115 145.602 49.6078 145.23 49.3163C144.857 49.0247 144.366 48.8789 143.755 48.8789C143.144 48.8789 142.67 49.0247 142.297 49.3163C141.924 49.6078 141.736 50.0115 141.736 50.5274C141.736 50.875 141.818 51.1553 141.98 51.3712C142.143 51.5871 142.336 51.7497 142.563 51.859C142.791 51.9684 143.082 52.0805 143.438 52.1898C143.685 52.2627 143.875 52.33 144.01 52.3861C144.145 52.4449 144.257 52.5178 144.349 52.6076C144.442 52.6973 144.487 52.8094 144.487 52.9468C144.487 53.1094 144.428 53.2383 144.313 53.3281C144.198 53.4206 144.038 53.4654 143.839 53.4654C143.64 53.4654 143.486 53.4122 143.365 53.3028C143.245 53.1963 143.172 53.0393 143.152 52.8346H141.717C141.728 53.1963 141.829 53.5075 142.02 53.7654C142.21 54.0233 142.468 54.2168 142.788 54.3485C143.107 54.4803 143.472 54.5448 143.875 54.5448C144.279 54.5448 144.649 54.4691 144.955 54.3149C145.26 54.1607 145.493 53.956 145.653 53.6981C145.813 53.4402 145.894 53.1542 145.894 52.8374C145.894 52.5066 145.813 52.2347 145.65 52.0244C145.488 51.8142 145.294 51.6544 145.07 51.5422L145.073 51.5478Z" fill="white"/>
<path d="M150.534 48.9521H149.186V54.4891H152.3V53.4461H150.534V48.9521Z" fill="white"/>
<path d="M154.688 48.9521H153.34V54.4891H156.455V53.4461H154.688V48.9521Z" fill="white"/>
<path d="M160.034 50.1204C160.292 50.1204 160.522 50.1821 160.723 50.3026C160.925 50.4232 161.082 50.5998 161.194 50.8297H162.675C162.518 50.2297 162.204 49.7559 161.738 49.4111C161.27 49.0635 160.707 48.8896 160.051 48.8896C159.515 48.8896 159.033 49.0102 158.612 49.2485C158.189 49.4868 157.861 49.8204 157.623 50.2493C157.387 50.6783 157.27 51.1661 157.27 51.7128C157.27 52.2595 157.387 52.7473 157.623 53.1734C157.861 53.5995 158.189 53.9303 158.612 54.1714C159.036 54.4097 159.515 54.5303 160.051 54.5303C160.707 54.5303 161.27 54.3593 161.738 54.0144C162.206 53.6696 162.518 53.1986 162.675 52.5987H161.194C161.085 52.8286 160.928 53.0052 160.723 53.1257C160.522 53.2463 160.292 53.308 160.034 53.308C159.619 53.308 159.282 53.1622 159.025 52.8734C158.767 52.5847 158.638 52.1978 158.638 51.7156C158.638 51.2334 158.767 50.8465 159.025 50.5577C159.282 50.269 159.619 50.1232 160.034 50.1232V50.1204Z" fill="white"/>
<path d="M77.5578 57.6375C77.9138 57.8253 78.1914 58.0917 78.3876 58.4337C78.5839 58.7757 78.682 59.171 78.682 59.6168C78.682 60.0625 78.5839 60.455 78.3876 60.7971C78.1914 61.1419 77.9138 61.4082 77.555 61.5961C77.1961 61.7839 76.7784 61.8792 76.3074 61.8792H74.6113V57.3516H76.3074C76.784 57.3516 77.2018 57.4469 77.5578 57.6347V57.6375ZM77.2102 60.584C77.4429 60.3569 77.5578 60.0345 77.5578 59.6168C77.5578 59.1991 77.4429 58.8767 77.2102 58.644C76.9775 58.4113 76.6523 58.2963 76.2374 58.2963H75.7159V60.9288H76.2374C76.6551 60.9288 76.9775 60.8167 77.2102 60.5868V60.584Z" fill="white"/>
<path d="M80.383 57.354V60.0622C80.383 60.3341 80.4503 60.5416 80.5821 60.6874C80.7166 60.8331 80.9101 60.906 81.168 60.906C81.4259 60.906 81.625 60.8331 81.7623 60.6874C81.8997 60.5416 81.9698 60.3341 81.9698 60.0622V57.354H83.0716V60.0566C83.0716 60.4603 82.9847 60.8023 82.8137 61.0827C82.6426 61.363 82.41 61.5733 82.1212 61.7162C81.8296 61.8592 81.5072 61.9293 81.1512 61.9293C80.7951 61.9293 80.4755 61.8592 80.1924 61.719C79.912 61.5789 79.6878 61.3686 79.5252 61.0883C79.3626 60.8079 79.2812 60.4631 79.2812 60.0594V57.3568H80.383V57.354Z" fill="white"/>
<path d="M87.2183 59.95C87.3781 60.1547 87.4566 60.3874 87.4566 60.6509C87.4566 61.0294 87.3248 61.3294 87.0585 61.5508C86.795 61.7723 86.4249 61.8816 85.9539 61.8816H83.8457V57.354H85.8838C86.3436 57.354 86.7053 57.4605 86.9632 57.6708C87.2239 57.8811 87.3529 58.167 87.3529 58.5287C87.3529 58.795 87.2828 59.0165 87.1426 59.1931C87.0024 59.3697 86.8174 59.4931 86.5847 59.5604C86.8454 59.6164 87.0585 59.7454 87.2155 59.95H87.2183ZM84.9475 59.1847H85.6708C85.8502 59.1847 85.9904 59.1454 86.0857 59.0641C86.1838 58.9856 86.2315 58.8679 86.2315 58.7137C86.2315 58.5595 86.1838 58.439 86.0857 58.3605C85.9876 58.2792 85.8502 58.2371 85.6708 58.2371H84.9475V59.1847ZM86.1894 60.864C86.2904 60.7799 86.3408 60.6593 86.3408 60.4995C86.3408 60.3397 86.2876 60.2164 86.1838 60.1267C86.0773 60.0369 85.9343 59.9921 85.7493 59.9921H84.9503V60.9929H85.7633C85.9483 60.9929 86.0913 60.9509 86.1922 60.8668L86.1894 60.864Z" fill="white"/>
<path d="M90.9163 61.0802H89.2258L88.9539 61.8792H87.7988L89.4361 57.3516H90.7117L92.3489 61.8792H91.1826L90.9107 61.0802H90.9163ZM90.6332 60.2279L90.0725 58.5711L89.5174 60.2279H90.6332Z" fill="white"/>
<path d="M93.9533 57.354V61.8816H92.8516V57.354H93.9533Z" fill="white"/>
<path d="M98.8957 59.1592V60.0759H96.0586V59.1592H98.8957Z" fill="white"/>
<path d="M101.977 61.7638C101.714 61.6573 101.506 61.4975 101.349 61.2872C101.192 61.0769 101.108 60.8218 101.1 60.5247H102.274C102.291 60.6929 102.35 60.8218 102.448 60.9087C102.546 60.9956 102.675 61.0405 102.835 61.0405C102.995 61.0405 103.127 61.0041 103.222 60.9284C103.317 60.8527 103.365 60.7489 103.365 60.6144C103.365 60.5022 103.328 60.4097 103.253 60.3368C103.177 60.2639 103.084 60.2023 102.975 60.1546C102.866 60.1069 102.709 60.0537 102.507 59.9948C102.215 59.9051 101.977 59.8126 101.792 59.7229C101.607 59.6331 101.447 59.4986 101.315 59.322C101.184 59.1453 101.116 58.9155 101.116 58.6323C101.116 58.209 101.268 57.881 101.573 57.6427C101.879 57.4044 102.277 57.2866 102.768 57.2866C103.258 57.2866 103.668 57.4044 103.973 57.6427C104.279 57.881 104.441 58.2146 104.464 58.6407H103.27C103.261 58.4949 103.208 58.38 103.11 58.2959C103.012 58.2118 102.883 58.1697 102.728 58.1697C102.594 58.1697 102.487 58.2062 102.406 58.2763C102.325 58.3463 102.283 58.4501 102.283 58.5818C102.283 58.7276 102.35 58.8426 102.49 58.9239C102.628 59.0052 102.843 59.0949 103.135 59.1874C103.427 59.2855 103.665 59.3808 103.847 59.4705C104.029 59.5603 104.186 59.692 104.321 59.863C104.455 60.034 104.52 60.2555 104.52 60.5275C104.52 60.7994 104.455 61.0209 104.324 61.2311C104.192 61.4414 104.001 61.6096 103.752 61.7358C103.502 61.8591 103.208 61.9208 102.869 61.9208C102.529 61.9208 102.241 61.8675 101.98 61.761L101.977 61.7638Z" fill="white"/>
<path d="M109.117 57.354V61.8816H108.015V60.0173H106.299V61.8816H105.197V57.354H106.299V59.1286H108.015V57.354H109.117Z" fill="white"/>
<path d="M112.731 61.0802H111.04L110.768 61.8792H109.613L111.251 57.3516H112.526L114.163 61.8792H112.997L112.725 61.0802H112.731ZM112.448 60.2279L111.887 58.5711L111.332 60.2279H112.448Z" fill="white"/>
<path d="M116.975 61.8816L116.033 60.1715H115.77V61.8816H114.668V57.354H116.518C116.874 57.354 117.18 57.4157 117.432 57.5418C117.685 57.668 117.872 57.839 117.996 58.0549C118.119 58.2707 118.184 58.5146 118.184 58.781C118.184 59.0838 118.099 59.3501 117.928 59.5884C117.757 59.8239 117.508 59.9921 117.177 60.093L118.223 61.8845H116.978L116.975 61.8816ZM115.77 59.3921H116.454C116.656 59.3921 116.807 59.3445 116.908 59.2436C117.009 59.1454 117.059 59.0053 117.059 58.823C117.059 58.6408 117.009 58.5146 116.908 58.4165C116.807 58.3184 116.656 58.2679 116.454 58.2679H115.77V59.3893V59.3921Z" fill="white"/>
<path d="M121.707 57.354V60.4378C121.707 60.9144 121.573 61.2817 121.304 61.5396C121.035 61.7975 120.673 61.9265 120.216 61.9265C119.759 61.9265 119.355 61.7919 119.066 61.52C118.778 61.2481 118.635 60.864 118.635 60.365H119.731C119.731 60.5528 119.77 60.6958 119.846 60.7939C119.924 60.892 120.034 60.9397 120.182 60.9397C120.317 60.9397 120.418 60.8976 120.493 60.8107C120.566 60.7266 120.603 60.6005 120.603 60.4378V57.354H121.707Z" fill="white"/>
<path d="M125.416 61.0802H123.726L123.454 61.8792H122.299L123.936 57.3516H125.212L126.849 61.8792H125.683L125.411 61.0802H125.416ZM125.133 60.2279L124.572 58.5711L124.017 60.2279H125.133Z" fill="white"/>
<path d="M131.273 57.354V61.8816H130.171V60.0173H128.455V61.8816H127.354V57.354H128.455V59.1286H130.171V57.354H131.273Z" fill="white"/>
<path d="M136.208 59.1592V60.0759H133.371V59.1592H136.208Z" fill="white"/>
<path d="M141.362 61.0802H139.671L139.399 61.8792H138.244L139.881 57.3516H141.157L142.794 61.8792H141.628L141.356 61.0802H141.362ZM141.078 60.2279L140.518 58.5711L139.963 60.2279H141.078Z" fill="white"/>
<path d="M146.133 57.354V60.4378C146.133 60.9144 145.999 61.2817 145.729 61.5396C145.46 61.7975 145.099 61.9265 144.642 61.9265C144.185 61.9265 143.781 61.7919 143.492 61.52C143.204 61.2481 143.061 60.864 143.061 60.365H144.157C144.157 60.5528 144.196 60.6958 144.272 60.7939C144.35 60.892 144.459 60.9397 144.608 60.9397C144.743 60.9397 144.844 60.8976 144.919 60.8107C144.992 60.7266 145.029 60.6005 145.029 60.4378V57.354H146.133Z" fill="white"/>
<path d="M152.154 57.354V61.8816H151.049V59.1679L150.037 61.8816H149.146L148.125 59.1595V61.8816H147.023V57.354H148.327L149.597 60.4883L150.856 57.354H152.154Z" fill="white"/>
<path d="M155.764 61.0802H154.073L153.802 61.8792H152.646L154.284 57.3516H155.559L157.197 61.8792H156.03L155.758 61.0802H155.764ZM155.481 60.2279L154.92 58.5711L154.365 60.2279H155.481Z" fill="white"/>
<path d="M161.75 61.8816H160.646L158.801 59.0894V61.8816H157.699V57.354H158.801L160.646 60.1603V57.354H161.75V61.8816Z" fill="white"/>
</svg>
